<?xml version="1.0" standalone="no"?>
<!DOCTYPE svg PUBLIC "-//W3C//DTD SVG 20010904//EN"
 "http://www.w3.org/TR/2001/REC-SVG-20010904/DTD/svg10.dtd">
<svg version="1.0" xmlns="http://www.w3.org/2000/svg"
 width="1728.000000pt" height="1675.000000pt" viewBox="0 0 1728.000000 1675.000000"
 preserveAspectRatio="xMidYMid meet">

<g transform="translate(0.000000,1675.000000) scale(0.100000,-0.100000)"
fill="#000000" stroke="none">
<path d="M8252 13640 c-31 -148 -50 -328 -62 -600 -5 -129 -12 -262 -15 -295
l-4 -60 24 73 c28 81 59 225 75 347 14 109 24 551 13 600 -9 39 -10 38 -31
-65z"/>
<path d="M9824 13631 c-78 -19 -150 -103 -230 -265 -78 -161 -106 -276 -107
-446 -1 -171 22 -270 97 -425 100 -205 199 -274 333 -236 38 11 59 -6 48 -39
-13 -42 44 -441 76 -525 18 -48 23 -55 31 -40 19 33 21 217 4 381 -20 199 -20
280 -2 332 8 22 43 82 78 133 118 173 165 326 175 571 7 172 -4 245 -50 331
-36 69 -76 104 -177 156 -122 63 -214 87 -276 72z m102 -129 c73 -47 119 -99
153 -172 49 -105 38 -284 -28 -461 -23 -61 -76 -149 -89 -149 -5 0 -15 32 -22
70 -7 39 -17 70 -21 70 -13 0 -22 -46 -16 -78 3 -15 8 -43 12 -62 5 -28 2 -41
-15 -63 -12 -15 -27 -27 -33 -27 -16 0 -82 159 -103 246 -32 131 -17 360 33
519 22 71 54 145 63 145 4 0 33 -17 66 -38z"/>
<path d="M8649 13455 c-110 -127 -257 -470 -247 -574 9 -92 65 -168 154 -212
42 -21 64 -24 153 -24 85 0 106 -3 114 -16 15 -24 -32 -217 -110 -449 -62
-184 -66 -201 -71 -307 -6 -138 1 -178 33 -199 55 -36 95 4 184 183 97 193
149 394 172 652 20 226 2 288 -93 335 -57 29 -153 35 -236 15 -58 -13 -111 -2
-123 25 -9 20 0 75 81 460 12 54 20 109 18 120 -3 20 -5 20 -29 -9z"/>
<path d="M7997 13263 c-23 -26 -82 -204 -112 -339 -15 -66 -28 -120 -29 -121
-1 -1 -53 32 -116 73 -63 41 -158 97 -210 123 -106 55 -285 131 -306 131 -8 0
-14 -10 -14 -24 0 -45 258 -219 487 -327 67 -32 124 -62 126 -66 3 -5 12 -62
21 -128 38 -283 120 -633 176 -750 20 -44 44 -89 52 -99 15 -19 16 -18 28 19
37 111 -41 568 -138 815 -46 118 -46 117 -3 231 73 195 125 435 100 465 -16
19 -43 18 -62 -3z"/>
<path d="M11621 13127 c-66 -33 -126 -97 -233 -247 -191 -268 -325 -520 -512
-967 -75 -178 -106 -263 -106 -292 0 -22 3 -42 8 -45 10 -6 117 138 193 259
102 164 109 168 212 111 34 -19 78 -39 98 -45 20 -7 45 -21 54 -31 17 -19 17
-26 -9 -170 -30 -165 -45 -353 -29 -363 20 -12 140 413 202 714 58 281 186
1099 172 1099 -3 0 -26 -10 -50 -23z m-123 -564 c-27 -109 -65 -283 -84 -388
-19 -104 -39 -194 -44 -199 -9 -9 -229 93 -230 108 0 4 47 81 104 170 117 183
221 356 266 445 16 34 32 61 34 61 2 0 -19 -89 -46 -197z"/>
<path d="M10485 12998 c-101 -217 -160 -428 -186 -673 -20 -195 5 -339 81
-453 45 -68 76 -92 117 -92 62 0 154 113 253 310 68 136 123 279 199 519 50
157 64 216 72 304 6 60 8 111 6 113 -11 12 -120 -192 -288 -541 -108 -225
-213 -415 -230 -415 -20 0 -26 447 -9 635 6 61 19 177 31 259 11 81 18 150 16
152 -2 2 -30 -51 -62 -118z"/>
<path d="M6500 12885 c0 -45 191 -511 318 -777 140 -294 307 -571 392 -653 38
-37 41 -38 36 -15 -3 14 -13 54 -21 90 -8 36 -15 73 -15 82 0 11 25 34 65 59
131 82 239 237 305 437 45 137 33 317 -30 441 -75 150 -287 301 -465 332 -108
18 -254 7 -320 -26 -52 -25 -115 -92 -115 -121 0 -36 -23 -14 -79 71 -34 52
-64 95 -66 95 -3 0 -5 -7 -5 -15z m357 -241 c134 -45 250 -127 299 -210 26
-45 27 -47 21 -177 -3 -73 -13 -158 -22 -191 -17 -62 -60 -166 -69 -166 -3 0
-48 84 -100 188 -53 103 -138 259 -190 347 -53 88 -96 167 -96 176 0 17 59 47
92 48 10 1 39 -6 65 -15z"/>
<path d="M11968 12619 c-193 -361 -311 -673 -372 -988 -34 -172 -34 -182 1
-140 40 47 78 59 193 59 196 0 339 49 441 151 131 131 237 342 271 537 30 175
-66 371 -217 444 -52 25 -70 28 -137 26 -80 -2 -93 3 -100 36 -2 11 -32 -35
-80 -125z m126 -110 c57 -62 70 -100 70 -204 0 -74 -5 -102 -27 -159 -37 -95
-102 -187 -194 -279 -81 -81 -206 -174 -211 -159 -1 4 31 89 71 188 41 98 88
222 105 274 38 115 92 324 92 354 0 30 19 47 40 36 9 -5 34 -28 54 -51z"/>
<path d="M5687 12406 c-60 -22 -112 -61 -130 -98 -8 -18 -23 -69 -32 -113 -9
-44 -17 -81 -19 -82 -1 -2 -16 15 -32 37 -31 42 -64 65 -84 58 -7 -2 24 -53
77 -124 271 -363 566 -655 863 -854 118 -79 112 -76 99 -43 -34 91 -105 187
-262 352 -70 75 -132 143 -137 152 -7 12 8 10 70 -12 83 -30 349 -92 490 -115
151 -25 385 -13 385 19 0 13 -127 64 -250 102 -169 51 -471 95 -659 95 -55 0
-58 1 -52 23 20 79 39 239 40 337 1 111 0 117 -30 170 -45 79 -106 110 -218
110 -44 -1 -98 -7 -119 -14z m130 -268 c17 -18 26 -54 43 -162 11 -76 19 -140
18 -142 -2 -1 -57 41 -123 94 -76 62 -121 105 -123 119 -12 83 129 151 185 91z"/>
<path d="M4840 11986 c0 -34 95 -166 216 -302 105 -117 202 -240 271 -344 46
-68 93 -152 93 -164 0 -9 -144 35 -235 71 -49 20 -175 78 -279 130 -103 52
-190 92 -193 90 -22 -22 206 -262 349 -368 133 -99 313 -187 415 -204 77 -12
138 39 188 157 26 63 20 163 -14 233 -79 165 -270 363 -566 590 -73 55 -245
133 -245 111z"/>
<path d="M12244 11405 c-14 -21 -16 -42 -12 -113 4 -72 12 -104 43 -177 94
-225 96 -235 92 -390 -7 -208 -38 -308 -156 -502 -124 -205 -157 -310 -147
-468 7 -113 37 -220 130 -471 122 -331 176 -525 176 -636 -1 -89 -55 -159
-138 -174 -144 -27 -328 211 -392 505 -60 276 -58 354 20 631 63 225 75 316
74 555 -1 190 -4 227 -33 385 -61 342 -80 456 -91 563 -16 156 -40 207 -99
207 -27 0 -27 -33 -5 -145 23 -112 23 -352 1 -467 -42 -209 -109 -356 -267
-583 -125 -179 -173 -270 -191 -363 -16 -83 -6 -212 26 -367 26 -122 70 -379
101 -585 24 -159 24 -309 0 -380 -21 -60 -63 -140 -76 -140 -4 0 -5 80 -2 178
10 355 -43 757 -158 1201 -23 86 -57 203 -76 261 -47 141 -160 365 -239 475
-91 127 -239 282 -349 364 l-93 70 -7 115 c-8 122 -34 268 -58 326 -40 95
-104 128 -176 91 -55 -28 -86 -69 -158 -208 -47 -92 -64 -118 -80 -117 -10 1
-89 18 -174 38 -535 129 -864 168 -1420 169 -258 1 -333 -2 -415 -16 -427 -74
-737 -266 -1108 -687 -61 -69 -116 -126 -123 -128 -19 -5 -86 33 -115 65 -42
45 -111 158 -177 289 -34 68 -73 131 -88 143 -67 53 -131 8 -160 -112 -26
-107 -30 -329 -9 -442 33 -180 146 -466 198 -500 22 -14 24 -20 16 -48 -17
-56 -60 -417 -66 -547 -8 -176 10 -264 92 -470 149 -370 197 -624 150 -785
-20 -71 -79 -137 -143 -162 -143 -55 -374 10 -515 145 -99 96 -143 228 -134
402 8 144 35 237 127 430 88 185 107 257 96 373 -16 169 -131 397 -201 397
-41 0 -49 -32 -36 -143 29 -248 5 -340 -168 -637 -110 -189 -149 -329 -138
-499 6 -96 40 -213 84 -290 15 -25 68 -102 118 -171 113 -155 126 -177 159
-268 66 -185 3 -294 -130 -226 -54 28 -100 92 -124 172 -11 37 -36 164 -56
282 -65 388 -116 481 -329 601 -139 78 -189 163 -206 353 -12 143 -30 205 -74
251 -62 66 -66 49 -50 -181 6 -81 4 -117 -11 -185 -27 -121 -24 -191 10 -259
44 -85 125 -196 219 -297 47 -51 94 -107 105 -125 61 -99 92 -282 92 -544 0
-206 8 -263 50 -352 61 -131 183 -226 366 -286 133 -44 204 -124 204 -230 0
-43 -5 -53 -38 -86 -92 -93 -279 -69 -367 46 -18 23 -48 90 -69 150 -51 147
-86 206 -176 294 -119 117 -271 192 -445 220 -107 18 -270 16 -335 -3 -68 -20
-140 -78 -140 -113 0 -28 -6 -27 140 -25 181 3 311 -44 425 -156 127 -124 191
-259 275 -578 81 -305 204 -479 436 -618 173 -104 414 -177 581 -177 313 0
738 298 935 657 l40 72 91 -112 c188 -232 370 -391 555 -485 180 -92 344 -129
531 -119 224 12 405 97 701 329 192 150 282 218 290 218 12 0 29 -50 41 -125
24 -151 144 -317 314 -434 154 -107 254 -137 495 -151 220 -13 315 -37 500
-130 133 -66 250 -153 388 -284 152 -144 206 -185 306 -231 143 -67 222 -80
471 -80 189 0 227 3 268 18 107 42 24 88 -243 137 -233 43 -413 148 -480 280
-12 23 -35 80 -51 128 -17 48 -46 111 -66 139 -53 79 -94 102 -325 187 -48 18
-108 65 -108 85 0 6 9 20 20 31 36 36 170 19 350 -45 88 -32 126 -54 319 -193
271 -194 478 -272 720 -272 119 0 202 19 303 70 121 60 224 136 334 245 139
138 226 272 318 487 82 193 104 320 112 643 6 201 4 236 -20 409 -46 333 -33
487 55 662 60 121 60 144 -2 144 -33 0 -46 -7 -82 -42 -61 -62 -118 -152 -203
-323 -113 -227 -120 -254 -115 -465 10 -398 8 -449 -17 -523 -60 -172 -156
-240 -293 -207 -100 24 -165 113 -209 286 -43 167 -16 344 71 470 23 32 117
136 209 229 119 121 185 197 229 264 91 139 265 493 285 579 35 155 12 454
-49 632 -56 164 -112 253 -303 486 -209 255 -259 520 -192 1004 17 123 21 186
17 305 -5 186 -18 229 -133 455 -70 137 -91 190 -125 315 -22 82 -43 153 -45
157 -11 18 -54 7 -70 -17z m-2036 -120 c27 -20 54 -109 50 -167 -4 -52 -20
-57 -102 -34 -83 24 -89 34 -65 104 22 63 34 83 64 100 26 15 27 15 53 -3z
m-1513 -165 c351 -19 648 -62 870 -127 66 -20 157 -45 203 -57 45 -11 81 -26
80 -32 -2 -5 -41 -64 -87 -130 l-85 -120 -95 1 c-89 0 -100 -2 -151 -31 -147
-83 -220 -279 -175 -472 27 -114 80 -206 180 -311 146 -154 360 -251 555 -251
138 0 245 37 327 113 67 61 95 125 101 223 5 101 -17 162 -72 195 -20 12 -36
24 -36 27 0 4 6 38 14 76 8 37 22 141 31 230 21 204 24 226 34 226 19 0 129
-90 185 -151 232 -251 389 -568 496 -1003 86 -353 120 -604 120 -911 1 -115 5
-243 9 -284 15 -122 25 -116 -190 -117 -139 0 -197 -4 -239 -16 -75 -22 -92
-12 -161 93 -46 69 -70 94 -128 134 -40 27 -81 63 -91 80 -23 37 -46 162 -55
300 -8 117 -19 161 -46 175 -28 15 -54 -2 -85 -58 -64 -112 -90 -145 -165
-207 -94 -78 -125 -127 -135 -214 -9 -84 -29 -105 -124 -131 -41 -11 -77 -17
-81 -12 -15 15 -30 135 -44 352 -18 266 -36 353 -104 496 -135 281 -341 497
-585 609 -347 161 -947 220 -1365 134 -297 -61 -679 -253 -878 -442 -114 -108
-173 -216 -245 -446 -17 -54 -33 -90 -38 -85 -5 5 -17 38 -26 74 -14 53 -16
92 -11 215 16 375 49 539 150 740 83 166 244 371 458 582 339 335 635 489
1034 536 68 9 473 6 650 -3z m1428 -85 c20 -8 51 -15 69 -15 72 0 104 -58 88
-158 -15 -90 -39 -100 -168 -72 -70 14 -121 44 -132 76 -8 21 29 144 51 170
15 18 48 18 92 -1z m-3854 -255 c11 -27 18 -55 15 -64 -6 -17 -52 -35 -71 -29
-16 6 -17 100 -3 138 13 35 30 22 59 -45z m3687 30 c59 -51 112 -73 194 -78
41 -2 87 -11 103 -19 25 -13 27 -18 27 -77 0 -49 -4 -65 -16 -70 -35 -13 -164
-5 -227 14 -66 20 -184 91 -194 116 -4 12 65 144 75 144 3 0 20 -13 38 -30z
m-3639 -142 c6 -7 23 -37 38 -66 l28 -52 -23 -25 c-28 -29 -98 -58 -131 -53
-22 3 -25 9 -30 68 -8 76 2 103 45 124 38 19 60 20 73 4z m3573 -63 c88 -78
188 -115 313 -115 l68 0 -6 -62 c-13 -125 -36 -158 -110 -158 -134 0 -318 111
-391 236 -27 46 -26 53 18 117 27 38 49 34 108 -18z m-132 -154 c52 -84 131
-168 192 -204 57 -33 149 -57 218 -57 l54 0 -7 -32 c-16 -75 -69 -132 -131
-144 -58 -11 -147 2 -200 29 -149 76 -314 242 -314 317 0 13 27 48 68 89 37
38 69 69 72 70 3 0 25 -30 48 -68z m-3318 19 c28 -39 22 -79 -20 -142 -32 -48
-83 -87 -137 -106 -37 -12 -32 -20 -58 101 -19 90 -15 102 45 112 21 4 58 19
82 35 55 36 62 36 88 0z m3015 -102 c-3 -7 -1 -19 4 -27 8 -12 15 -13 35 -3
24 11 27 8 82 -76 140 -216 271 -312 450 -329 l63 -6 -40 -45 c-43 -50 -47
-75 -11 -80 32 -5 100 50 153 122 l43 59 9 -32 c17 -68 -54 -146 -155 -173
-41 -10 -58 -9 -120 6 -168 43 -269 94 -392 200 -128 110 -182 221 -157 323
11 42 26 73 37 73 2 0 1 -6 -1 -12z m-2918 -18 c14 -11 32 -20 39 -20 7 0 -12
-33 -42 -72 -56 -75 -127 -205 -159 -291 l-18 -49 -24 39 c-26 42 -63 153 -63
187 0 15 12 28 37 41 54 29 144 106 173 148 14 20 27 37 28 37 2 0 15 -9 29
-20z m1440 -665 c39 -19 76 -35 81 -35 20 0 84 -74 111 -128 16 -31 45 -109
65 -172 88 -273 213 -465 382 -586 201 -144 574 -247 831 -229 119 8 119 8
129 -97 7 -68 41 -132 75 -143 21 -7 25 -21 34 -120 3 -38 19 -178 35 -310 30
-248 51 -460 71 -721 18 -242 -11 -396 -97 -521 -61 -89 -348 -351 -529 -483
-55 -40 -145 -110 -200 -155 -169 -138 -263 -203 -369 -255 -220 -109 -439
-126 -670 -53 -244 77 -408 212 -737 607 -96 116 -205 246 -242 290 -252 300
-355 551 -388 949 -13 160 -3 343 37 692 35 311 64 427 133 532 44 67 283 307
362 363 30 21 131 78 224 127 197 103 256 140 342 211 87 73 149 163 194 281
9 22 10 22 32 7 12 -9 54 -32 94 -51z m-800 -21 c9 -24 -42 -70 -145 -130
-184 -109 -292 -223 -387 -411 -78 -154 -119 -167 -88 -29 45 197 251 429 498
560 56 29 112 34 122 10z m1599 -165 c40 -24 85 -86 144 -194 53 -96 103 -148
199 -205 59 -35 70 -45 56 -52 -10 -6 -35 -5 -68 3 -74 17 -170 116 -256 264
-35 61 -79 131 -98 158 -36 51 -29 59 23 26z m-386 -36 c12 -16 65 -116 118
-223 88 -180 100 -199 166 -265 50 -48 94 -82 147 -108 42 -21 87 -49 100 -63
l24 -26 -24 -19 c-29 -24 -63 -19 -136 20 -72 38 -223 191 -275 278 -54 94
-136 277 -155 348 -21 83 -5 109 35 58z m786 -19 c48 -23 154 -140 193 -213
44 -83 121 -262 121 -282 0 -9 -7 -23 -16 -30 -27 -23 -77 45 -109 149 -45
143 -64 174 -203 331 -57 64 -53 77 14 45z m-1766 -33 c0 -32 -64 -77 -204
-145 -254 -124 -377 -218 -476 -363 -91 -134 -132 -167 -81 -64 87 172 235
298 542 462 85 45 168 90 184 100 35 22 35 22 35 10z m2841 -711 c6 -41 30
-155 54 -252 52 -210 69 -323 60 -398 -13 -111 -23 -130 -119 -228 -94 -96
-150 -132 -203 -132 -29 0 -32 3 -41 48 -6 26 -13 85 -17 132 -3 47 -13 158
-22 247 -31 325 -8 420 122 519 40 29 89 74 110 99 20 26 39 45 41 43 2 -2 8
-37 15 -78z m1398 -150 c20 -68 70 -162 159 -295 90 -136 137 -185 204 -215
125 -55 364 -26 499 61 26 16 66 55 90 85 23 30 51 60 62 66 18 9 19 8 13 -28
-13 -69 -76 -246 -117 -328 -60 -120 -130 -207 -253 -312 -157 -136 -209 -173
-354 -254 -163 -92 -232 -142 -308 -222 -116 -121 -159 -247 -151 -438 6 -138
32 -240 91 -366 58 -121 114 -203 205 -297 69 -71 72 -77 45 -72 -16 2 -93 14
-172 25 -161 24 -277 54 -402 107 -169 71 -276 103 -357 109 -91 7 -195 -12
-279 -50 -72 -33 -157 -115 -191 -185 -25 -50 -28 -66 -27 -156 0 -68 6 -114
17 -144 10 -24 15 -46 13 -48 -2 -2 -30 3 -62 11 -33 8 -124 27 -204 41 -278
49 -395 95 -501 193 -163 150 -234 384 -146 481 12 13 42 37 66 53 24 17 73
57 108 89 80 73 128 95 339 160 198 60 304 107 414 183 121 83 430 338 560
461 64 61 168 158 232 218 168 155 237 268 278 457 11 47 31 196 44 331 24
226 48 352 66 332 3 -4 12 -28 19 -53z m-934 -660 c-22 -87 -126 -345 -185
-463 -53 -106 -135 -236 -209 -332 -87 -114 -274 -295 -349 -340 -37 -21 19
49 117 145 231 229 443 575 536 875 21 66 51 147 69 180 30 58 31 59 34 29 2
-18 -4 -60 -13 -94z m-4720 -295 c58 -107 85 -138 141 -165 78 -38 187 -19
291 50 l33 22 11 -29 c6 -15 14 -89 19 -163 5 -74 18 -171 29 -215 30 -116
135 -321 227 -440 87 -114 116 -170 107 -206 -17 -67 -114 -175 -222 -248 -75
-52 -265 -143 -406 -197 -127 -48 -222 -53 -295 -15 -49 26 -200 141 -200 153
0 17 50 37 130 52 151 28 258 101 320 218 45 85 53 193 20 280 -42 112 -161
214 -322 278 -46 18 -114 49 -153 69 l-70 36 120 5 c143 6 184 22 232 93 61
90 54 211 -22 370 -79 164 -72 201 10 52z m5105 43 c0 -22 -34 -70 -101 -144
-35 -39 -107 -119 -159 -178 -116 -131 -452 -443 -499 -463 -73 -31 -47 25 46
100 81 65 292 279 498 505 155 170 215 220 215 180z m-1071 -79 c24 -69 10
-466 -17 -483 -4 -2 -7 112 -7 255 0 142 3 259 7 259 3 0 11 -14 17 -31z"/>
<path d="M8294 11081 c-108 -26 -33 -54 84 -32 50 10 62 19 42 31 -17 11 -81
11 -126 1z"/>
<path d="M7945 11051 c-35 -9 -95 -39 -95 -48 0 -17 246 22 289 47 18 10 -154
11 -194 1z"/>
<path d="M6722 10235 c-27 -20 -119 -168 -127 -207 -4 -17 -2 -35 6 -44 10
-12 24 6 86 111 50 86 71 130 65 140 -7 13 -10 13 -30 0z"/>
<path d="M10690 10217 c0 -2 19 -42 43 -89 23 -46 69 -157 102 -247 56 -152
60 -159 63 -119 7 95 -45 256 -119 368 -32 47 -89 103 -89 87z"/>
<path d="M8530 10121 c0 -5 6 -13 13 -18 23 -18 477 -223 493 -223 29 0 10 33
-40 71 -66 50 -194 112 -306 149 -90 29 -160 39 -160 21z"/>
<path d="M6662 9681 c-53 -56 -138 -199 -148 -250 -6 -29 -4 -33 12 -29 10 2
33 25 49 51 17 26 63 95 103 153 39 58 72 110 72 115 0 25 -46 4 -88 -40z"/>
<path d="M10950 9518 c0 -31 9 -70 19 -93 l19 -40 1 63 c1 55 -18 122 -34 122
-3 0 -5 -24 -5 -52z"/>
<path d="M11010 9168 c0 -35 31 -111 49 -122 16 -11 14 78 -3 119 -19 46 -46
47 -46 3z"/>
<path d="M9690 9083 c0 -24 16 -133 37 -243 6 -33 6 -34 13 -10 12 38 11 200
-1 243 -7 26 -15 37 -29 37 -15 0 -20 -7 -20 -27z"/>
<path d="M10384 8950 c20 -41 43 -106 52 -145 8 -38 19 -83 23 -100 11 -47 35
-38 39 13 6 78 -56 219 -123 282 -25 24 -25 22 9 -50z"/>
<path d="M11045 8900 c-7 -11 31 -170 44 -183 13 -13 24 48 16 91 -11 64 -26
102 -40 102 -8 0 -16 -4 -20 -10z"/>
<path d="M10822 8290 c-23 -17 -42 -31 -42 -33 0 -1 65 -3 144 -4 118 -2 146
0 157 13 17 21 4 29 -72 42 -107 19 -141 16 -187 -18z"/>
<path d="M8575 8532 c-92 -28 -203 -91 -271 -154 -93 -88 -105 -138 -36 -151
41 -8 80 13 165 91 105 95 158 117 292 116 80 0 131 -8 260 -38 88 -21 182
-47 208 -57 26 -11 61 -19 76 -19 30 0 56 21 49 41 -5 14 -269 120 -388 155
-115 35 -270 41 -355 16z"/>
<path d="M6644 8395 c-22 -55 175 -114 458 -137 215 -17 355 5 391 63 15 24 1
64 -28 77 -35 16 -160 15 -275 -3 -121 -19 -236 -19 -375 0 -139 19 -164 19
-171 0z"/>
<path d="M7556 8151 c-15 -23 41 -111 71 -111 18 0 16 8 -15 64 -27 50 -45 65
-56 47z"/>
<path d="M8692 8129 c-137 -23 -252 -82 -343 -176 -63 -64 -89 -108 -89 -150
0 -25 4 -22 44 33 24 33 68 81 97 106 86 72 119 83 119 37 0 -28 67 -97 120
-124 66 -34 158 -48 225 -36 99 18 161 64 228 167 43 65 62 66 161 9 87 -49
116 -56 116 -26 0 43 -174 131 -308 157 -81 15 -285 17 -370 3z"/>
<path d="M7016 8104 c-90 -22 -198 -78 -240 -124 -47 -52 -46 -70 2 -32 40 31
82 56 87 50 1 -2 15 -29 30 -60 44 -90 111 -128 223 -128 107 1 200 57 259
157 13 23 28 43 31 43 16 0 104 -80 147 -132 50 -61 64 -68 85 -43 19 23 -1
54 -78 126 -122 114 -234 160 -391 158 -53 0 -123 -7 -155 -15z"/>
<path d="M7715 7920 c-13 -21 23 -110 45 -110 15 0 12 46 -4 85 -15 35 -29 44
-41 25z"/>
<path d="M9360 7791 c0 -11 13 -30 29 -44 l30 -25 -38 -5 c-84 -11 -166 -73
-219 -166 l-28 -50 -43 50 c-53 62 -105 89 -171 89 -44 0 -55 -5 -92 -37 -60
-55 -80 -107 -79 -208 0 -167 91 -364 236 -511 85 -86 148 -123 219 -131 l42
-5 66 88 c37 49 102 133 146 187 129 158 179 289 169 434 -9 119 -61 203 -152
244 -22 10 -34 19 -27 19 20 0 14 17 -19 55 -34 39 -69 47 -69 16z"/>
<path d="M6676 7698 c-34 -34 -55 -82 -42 -95 9 -9 64 46 83 81 24 47 0 55
-41 14z"/>
<path d="M7792 7580 l0 -125 19 40 c10 22 18 60 18 85 0 25 -8 63 -18 85 l-19
40 0 -125z"/>
<path d="M6795 7618 c-14 -29 -25 -64 -25 -77 0 -22 1 -23 18 -8 26 25 65 104
59 122 -11 27 -28 16 -52 -37z"/>
<path d="M9100 7644 c1 -27 20 -64 34 -64 15 0 4 59 -14 75 -20 18 -20 17 -20
-11z"/>
<path d="M8290 7628 c-25 -41 -33 -68 -28 -104 3 -29 4 -29 36 20 31 49 44
116 22 116 -6 0 -19 -15 -30 -32z"/>
<path d="M6952 7596 c-14 -38 -16 -102 -3 -110 12 -8 31 49 31 95 0 49 -13 56
-28 15z"/>
<path d="M8684 7608 c3 -13 6 -31 6 -40 0 -18 26 -48 41 -48 12 0 12 67 -1 91
-6 10 -20 19 -32 19 -16 0 -19 -4 -14 -22z"/>
<path d="M7405 7600 c-15 -25 53 -90 95 -90 21 0 21 0 3 31 -31 53 -82 84 -98
59z"/>
<path d="M8515 7587 c-8 -31 10 -107 25 -107 15 0 12 94 -4 116 -14 18 -15 18
-21 -9z"/>
<path d="M7127 7593 c-21 -20 11 -123 37 -123 12 0 16 10 16 40 0 63 -29 108
-53 83z"/>
<path d="M7235 7389 c-22 -12 -63 -45 -91 -75 -44 -48 -55 -54 -90 -54 -21 0
-63 11 -92 25 -112 52 -201 26 -238 -70 -14 -38 -15 -55 -5 -119 13 -90 47
-186 92 -263 46 -77 160 -191 237 -236 87 -51 187 -85 209 -71 22 14 115 197
152 301 90 246 79 502 -23 564 -40 25 -100 24 -151 -2z"/>
<path d="M7741 7311 c-12 -24 -50 -89 -82 -144 -32 -54 -59 -103 -59 -107 0
-11 145 -203 166 -221 12 -10 18 -9 32 4 15 16 15 20 -3 55 -11 20 -46 62 -77
93 -36 36 -58 65 -58 79 0 12 20 49 45 82 50 66 68 116 63 168 l-3 35 -24 -44z"/>
<path d="M7785 7118 l-40 -22 30 -7 c17 -4 72 -7 123 -8 74 -1 92 2 92 13 0
48 -132 63 -205 24z"/>
<path d="M8230 7097 c0 -21 46 -77 63 -77 13 0 7 51 -9 75 -21 32 -54 33 -54
2z"/>
<path d="M8690 6961 c-138 -140 -281 -231 -450 -287 -79 -26 -94 -28 -220 -24
-329 8 -318 11 -281 -72 67 -151 78 -236 45 -341 -23 -74 -13 -96 51 -116 l49
-16 22 -75 c41 -132 114 -191 265 -211 96 -13 138 -7 179 28 43 35 65 84 96
206 33 133 52 167 96 167 18 0 41 7 51 14 46 35 196 358 228 490 24 103 26
261 3 294 -25 37 -54 25 -134 -57z m-171 -267 c20 -4 31 -12 31 -24 0 -21 -42
-86 -55 -83 -6 0 -20 26 -32 57 l-21 56 23 0 c12 0 37 -3 54 -6z m-110 -55
c26 -74 9 -123 -46 -138 -48 -14 -67 -2 -80 51 -5 24 -12 49 -14 57 -3 9 15
22 51 37 72 30 76 30 89 -7z m-172 -114 c6 -53 5 -54 -28 -74 -50 -30 -112
-28 -138 5 -29 37 -46 93 -32 107 6 6 48 19 94 28 95 19 95 19 104 -66z m-260
37 c6 -4 18 -29 25 -56 12 -44 11 -49 -7 -62 -46 -34 -98 -7 -127 66 l-15 35
51 11 c28 6 53 12 56 12 3 1 10 -2 17 -6z m553 -177 c0 -14 -54 -146 -76 -184
-13 -24 -34 -81 -45 -125 -36 -143 -61 -182 -128 -205 -124 -41 -277 32 -317
152 -32 97 6 188 109 263 34 24 71 53 82 63 15 14 26 16 45 9 13 -5 26 -10 27
-12 2 -2 -15 -38 -38 -81 -36 -66 -42 -87 -43 -139 -1 -57 1 -61 23 -64 30 -5
41 12 41 64 0 102 71 208 163 243 46 18 157 29 157 16z"/>
<path d="M8222 6947 c-25 -26 -30 -67 -8 -67 20 0 79 57 74 72 -8 22 -43 20
-66 -5z"/>
<path d="M7880 6869 c0 -17 5 -20 32 -17 22 2 34 9 36 21 3 14 -4 17 -32 17
-30 0 -36 -4 -36 -21z"/>
<path d="M10196 8507 c-28 -42 -86 -178 -86 -203 0 -27 26 -50 79 -69 54 -19
51 -19 51 5 0 11 -12 26 -29 35 -43 22 -46 46 -16 113 19 42 25 72 23 103 l-3
44 -19 -28z"/>
<path d="M10180 8155 c-12 -15 -12 -23 9 -125 13 -62 5 -93 -35 -131 -67 -65
-18 -100 52 -36 56 52 64 117 23 199 -11 21 -19 51 -19 67 0 35 -13 47 -30 26z"/>
<path d="M11606 8114 c-3 -21 -17 -100 -30 -174 -26 -143 -20 -153 27 -50 23
50 35 198 19 239 -8 23 -9 23 -16 -15z"/>
<path d="M11930 8006 c0 -28 42 -49 86 -44 45 5 40 26 -11 48 -61 26 -75 25
-75 -4z"/>
<path d="M12245 7641 c-39 -37 -118 -98 -175 -136 -58 -37 -156 -102 -218
-143 -119 -77 -277 -220 -254 -229 18 -7 52 17 138 97 60 56 103 83 251 159
98 50 200 108 228 128 62 48 108 119 103 161 l-3 30 -70 -67z"/>
<path d="M9550 6208 c0 -37 27 -127 55 -184 55 -112 178 -210 255 -202 31 3
30 4 -44 57 -123 88 -168 137 -190 206 -17 56 -61 145 -71 145 -3 0 -5 -10 -5
-22z"/>
<path d="M10421 6144 c-47 -42 -81 -107 -81 -155 l0 -34 34 51 c19 28 60 73
90 99 63 54 71 75 26 75 -20 0 -43 -11 -69 -36z"/>
<path d="M6224 7352 c39 -42 68 -47 124 -21 l47 23 -75 6 c-42 4 -87 11 -100
15 l-25 7 29 -30z"/>
<path d="M6690 6418 c-32 -43 -39 -78 -17 -78 28 0 83 80 73 106 -9 24 -24 16
-56 -28z"/>
<path d="M6160 6313 c-97 -114 -103 -123 -87 -123 27 0 103 60 124 97 23 43
37 93 26 92 -5 0 -33 -30 -63 -66z"/>
<path d="M11470 11318 c0 -3 13 -47 29 -96 62 -190 83 -383 58 -547 -9 -55
-14 -101 -12 -103 1 -2 12 16 23 40 76 158 69 407 -18 583 -27 55 -80 137 -80
123z"/>
<path d="M12537 11054 c-14 -14 -6 -47 44 -181 28 -76 60 -178 70 -228 24
-115 25 -304 3 -415 -12 -56 -14 -88 -7 -103 l10 -22 13 25 c46 87 64 342 35
497 -24 127 -128 422 -151 430 -5 2 -13 0 -17 -3z"/>
<path d="M4196 10945 c-49 -17 -103 -61 -139 -111 -23 -33 -30 -56 -38 -139
-7 -70 -17 -112 -32 -140 -21 -38 -25 -40 -67 -39 -25 1 -75 5 -112 9 -64 7
-68 7 -68 -13 0 -26 50 -70 141 -123 97 -56 115 -78 145 -175 13 -46 34 -93
44 -106 l19 -23 1 83 0 83 43 -26 c94 -59 389 -196 504 -234 136 -45 209 -79
237 -109 16 -19 17 -26 6 -73 -13 -54 -6 -246 9 -262 5 -5 34 15 65 43 40 38
66 73 91 126 32 66 38 74 70 80 19 3 63 1 98 -5 35 -6 88 -11 118 -11 l54 1
-41 37 c-23 20 -66 60 -97 87 -73 65 -78 88 -44 185 62 174 92 409 68 534 -47
252 -253 348 -498 232 -80 -38 -159 -109 -191 -171 l-19 -39 -16 31 c-9 17
-27 60 -41 96 -35 92 -71 143 -120 167 -50 24 -132 26 -190 5z m144 -268 c16
-17 40 -56 51 -86 23 -61 66 -258 57 -266 -5 -6 -307 103 -325 117 -50 40 37
228 120 263 38 16 60 10 97 -28z m546 -12 c39 -8 81 -51 94 -96 13 -44 13
-281 0 -348 -5 -29 -17 -68 -27 -88 -16 -34 -18 -35 -57 -30 -55 8 -231 97
-283 144 l-42 38 7 136 c9 160 17 179 98 216 54 25 135 43 164 37 8 -1 29 -5
46 -9z"/>
<path d="M5570 9646 c0 -15 8 -56 17 -90 12 -44 17 -99 17 -201 0 -125 -3
-149 -27 -220 -14 -44 -47 -116 -73 -160 -33 -58 -48 -94 -51 -130 l-4 -50 26
30 c41 49 112 195 141 291 20 68 27 119 31 214 6 139 -7 212 -51 297 -23 45
-25 46 -26 19z"/>
<path d="M4610 9179 c0 -20 9 -56 20 -81 32 -73 46 -211 32 -330 -7 -57 -12
-119 -12 -138 0 -34 23 -80 39 -80 5 0 14 75 21 168 14 191 6 275 -35 368 -14
31 -25 62 -25 69 0 7 -9 23 -20 36 l-19 24 -1 -36z"/>
<path d="M5765 8426 c-14 -73 18 -236 47 -236 13 0 9 84 -8 168 -21 101 -30
117 -39 68z"/>
<path d="M4397 7303 c-25 -25 40 -53 123 -53 64 0 70 9 22 34 -31 15 -135 29
-145 19z"/>
<path d="M4892 6628 c6 -18 23 -51 38 -73 62 -92 91 -170 125 -343 24 -120 57
-205 90 -232 15 -12 19 -12 31 4 12 17 9 26 -21 80 -22 40 -47 111 -71 206
-29 118 -47 166 -96 258 -51 96 -79 132 -102 132 -3 0 0 -15 6 -32z"/>
<path d="M12775 6544 c-31 -58 -119 -131 -177 -149 -29 -8 -63 -15 -77 -15
-25 -1 -25 -1 -7 -15 26 -19 107 -19 153 0 82 35 143 102 143 160 0 51 -14 58
-35 19z"/>
<path d="M7076 5728 c-41 -48 -136 -227 -136 -256 0 -11 6 -25 14 -31 23 -19
60 6 111 74 95 128 128 222 86 245 -30 16 -37 13 -75 -32z"/>
<path d="M8850 5505 c-30 -36 17 -151 105 -257 57 -70 73 -79 95 -53 19 23 6
77 -39 169 -68 137 -124 186 -161 141z"/>
<path d="M12880 5426 c-171 -178 -371 -287 -578 -316 -58 -8 -88 -16 -80 -21
24 -15 137 -9 216 11 160 42 399 184 473 281 37 48 61 97 57 117 -2 12 -28 -9
-88 -72z"/>
<path d="M7548 5473 c-41 -47 -88 -195 -88 -276 0 -47 1 -48 27 -45 25 3 32
14 79 133 29 72 53 141 53 156 2 46 -41 65 -71 32z"/>
<path d="M8143 5343 c-25 -39 -25 -262 0 -310 18 -34 46 -43 65 -20 17 20 35
184 27 251 -11 101 -54 138 -92 79z"/>
<path d="M9760 5328 c41 -34 144 -78 206 -88 33 -5 120 -14 194 -20 177 -13
294 -45 445 -120 66 -32 133 -62 148 -66 26 -6 28 -4 25 17 -6 45 -251 164
-398 195 -36 7 -132 18 -215 24 -186 13 -270 26 -360 56 -68 23 -69 23 -45 2z"/>
<path d="M6685 5146 c-45 -19 -83 -69 -101 -134 -14 -46 -16 -82 -11 -182 7
-140 29 -256 84 -434 60 -198 52 -273 -37 -333 -48 -33 -91 -43 -230 -53 -138
-10 -172 -19 -212 -58 -37 -34 -36 -72 2 -127 50 -72 97 -102 265 -171 274
-112 276 -112 376 -29 109 90 187 204 223 324 23 80 21 231 -4 315 -30 96
-107 205 -201 282 -43 36 -81 74 -84 85 -10 30 53 151 87 167 23 11 36 9 105
-17 43 -16 92 -37 110 -47 24 -14 35 -16 44 -7 6 6 13 58 16 117 5 85 3 114
-11 150 -22 56 -108 137 -163 154 -54 16 -220 15 -258 -2z"/>
<path d="M7377 4873 c-11 -10 -8 -522 3 -678 27 -377 93 -799 141 -910 l13
-30 3 35 c2 19 10 81 18 138 18 123 19 210 4 321 -8 56 -8 86 -1 93 6 6 57 19
114 29 57 10 144 30 193 45 50 14 97 28 106 31 13 4 19 -21 38 -144 36 -237
51 -324 68 -393 18 -77 66 -208 69 -194 2 5 8 67 14 137 9 110 7 155 -10 315
-48 436 -75 612 -135 882 -37 164 -54 205 -76 183 -8 -8 -9 -38 -1 -110 6 -54
11 -154 12 -223 1 -69 8 -174 16 -235 12 -97 12 -111 -1 -121 -8 -6 -56 -14
-107 -17 -51 -4 -138 -18 -193 -31 -55 -14 -103 -22 -106 -18 -3 4 -12 61 -19
127 -17 172 -111 742 -125 765 -7 11 -29 13 -38 3z"/>
<path d="M9975 4810 c-122 -32 -223 -85 -327 -172 l-48 -40 -9 25 c-5 13 -15
43 -21 65 -11 42 -54 102 -72 102 -12 0 -7 -88 23 -375 60 -585 164 -1058 321
-1472 28 -73 54 -133 58 -133 15 0 33 204 27 319 -3 64 -21 219 -41 345 -20
126 -34 238 -30 248 3 10 25 29 48 43 74 43 205 189 277 310 123 203 165 310
175 446 8 107 -5 153 -57 213 -83 94 -176 116 -324 76z m69 -308 c12 -20 -212
-542 -233 -542 -4 0 -18 37 -31 83 -13 45 -45 149 -73 231 -32 98 -45 152 -39
158 6 6 62 16 125 24 64 8 142 23 174 33 70 23 71 23 77 13z"/>
<path d="M8542 4697 c-92 -221 -122 -358 -122 -564 0 -337 146 -725 308 -821
40 -23 58 -27 123 -27 89 0 117 15 217 116 110 111 176 225 229 398 25 81 27
98 27 281 0 221 -10 284 -69 406 -40 83 -120 176 -176 205 -52 26 -144 35
-208 19 -60 -14 -134 -76 -208 -174 -26 -34 -50 -65 -56 -71 -5 -6 -6 55 -2
163 9 210 0 220 -63 69z m397 -302 c52 -26 80 -118 81 -260 0 -104 -19 -193
-56 -268 -28 -56 -100 -157 -112 -157 -11 0 -86 116 -120 185 -36 74 -102 278
-102 317 0 46 15 65 98 119 122 82 157 92 211 64z"/>
</g>
</svg>
