<?xml version="1.0" standalone="no"?>
<!DOCTYPE svg PUBLIC "-//W3C//DTD SVG 20010904//EN"
 "http://www.w3.org/TR/2001/REC-SVG-20010904/DTD/svg10.dtd">
<svg version="1.0" xmlns="http://www.w3.org/2000/svg"
 width="3848.000000pt" height="3244.000000pt" viewBox="0 0 3848.000000 3244.000000"
 preserveAspectRatio="xMidYMid meet">

<g transform="translate(0.000000,3244.000000) scale(0.100000,-0.100000)"
fill="#000000" stroke="none">
<path d="M19554 25222 c-54 -19 -163 -92 -205 -138 -14 -16 -71 -117 -126
-224 -117 -227 -220 -413 -453 -815 -476 -824 -893 -1644 -1217 -2394 -200
-462 -420 -1012 -470 -1176 -26 -86 -36 -205 -17 -212 6 -2 34 31 61 74 112
174 228 421 326 693 55 151 118 292 244 544 433 867 1109 1914 1768 2741 113
141 136 177 200 310 174 360 204 527 106 592 -43 29 -141 31 -217 5z"/>
<path d="M21420 24429 c49 -127 61 -256 39 -429 -47 -383 -205 -818 -614
-1695 -287 -614 -875 -1863 -980 -2080 -1097 -2266 -1737 -3655 -1780 -3865
l-7 -35 22 20 c12 11 104 126 205 255 100 129 244 309 320 400 77 91 205 244
286 340 81 96 176 208 211 248 60 67 78 101 246 456 100 212 329 690 508 1063
695 1445 1391 2926 1564 3330 300 697 409 1171 335 1458 -21 81 -120 279 -194
390 -33 50 -89 119 -125 154 l-65 65 29 -75z"/>
<path d="M10640 23581 c-44 -7 -285 -90 -730 -251 -1119 -406 -1884 -762
-2725 -1268 -174 -105 -620 -396 -722 -471 -117 -85 -352 -486 -447 -758 -37
-109 -92 -353 -79 -353 2 0 70 54 151 121 186 153 599 463 807 606 863 591
1751 1056 2805 1466 329 128 672 252 1440 521 355 124 683 241 729 259 l84 34
-49 12 c-143 33 -395 65 -629 81 -165 11 -564 11 -635 1z"/>
<path d="M10310 21470 c-36 -10 -164 -44 -285 -75 -213 -55 -693 -207 -751
-238 -62 -33 -583 -480 -933 -801 -235 -215 -766 -746 -937 -936 -523 -582
-993 -1194 -1233 -1604 -172 -293 -318 -666 -309 -788 l3 -42 35 31 c67 59
209 273 387 581 105 184 236 383 358 547 510 683 1339 1502 2285 2255 271 216
1027 783 1260 944 102 71 189 133 195 137 12 12 4 10 -75 -11z"/>
<path d="M23852 20613 c-29 -65 -113 -235 -187 -378 -634 -1222 -1094 -2251
-1589 -3551 -319 -840 -456 -1240 -456 -1333 0 -49 50 -70 83 -33 8 9 41 94
72 187 298 893 827 2097 1320 3010 319 591 745 1309 1053 1774 89 134 162 249
162 255 0 29 -41 62 -124 101 -77 36 -233 85 -271 85 -6 0 -35 -53 -63 -117z"/>
<path d="M13497 20408 c24 -88 29 -308 8 -429 -77 -463 -389 -1012 -928 -1629
-127 -146 -661 -679 -832 -831 -430 -383 -994 -837 -1335 -1076 -456 -320
-1059 -643 -1420 -761 -285 -94 -552 -120 -903 -87 -224 21 -338 4 -423 -60
-63 -49 -169 -286 -372 -840 -228 -619 -247 -725 -247 -1350 0 -320 4 -433 18
-565 39 -349 67 -405 205 -405 37 0 79 4 95 8 27 7 27 8 20 65 -13 98 -9 825
5 947 29 243 72 399 229 830 205 563 304 789 374 848 87 75 142 81 609 62 422
-16 678 44 1148 270 395 191 823 451 1182 718 157 117 639 503 820 656 404
344 905 826 1149 1106 330 377 547 685 711 1006 280 549 315 965 110 1310 -40
67 -159 203 -210 239 l-28 20 15 -52z"/>
<path d="M11740 20221 c-164 -55 -491 -244 -760 -439 -156 -114 -773 -609
-945 -758 -198 -172 -510 -479 -837 -821 -503 -528 -636 -689 -741 -899 -74
-148 -106 -290 -88 -391 19 -101 80 -128 225 -98 84 18 216 63 216 74 0 16 98
162 169 251 243 306 1078 1164 1407 1446 187 161 801 651 941 751 195 140 508
332 625 382 43 18 45 21 56 77 16 78 15 217 -2 281 -39 147 -122 191 -266 144z"/>
<path d="M26105 19911 c0 -113 -5 -170 -23 -252 -45 -209 -134 -473 -266 -792
-79 -189 -631 -1400 -853 -1872 -342 -725 -618 -1325 -803 -1745 -60 -135
-136 -303 -170 -375 -195 -409 -608 -1402 -733 -1760 -84 -242 -118 -430 -81
-442 40 -13 252 217 617 671 80 100 143 189 153 215 34 91 224 530 309 716
134 292 226 494 305 675 101 231 440 966 675 1465 217 460 259 552 597 1295
341 749 445 1004 528 1291 104 362 105 562 5 766 -46 93 -124 186 -220 260
l-40 31 0 -147z"/>
<path d="M21868 19082 c-1250 -1218 -2229 -2304 -3094 -3437 -678 -887 -1644
-2441 -2315 -3725 -291 -556 -677 -1445 -824 -1895 -23 -71 -49 -133 -56 -137
-16 -8 -1171 -229 -1176 -225 -5 6 183 556 257 752 87 233 187 472 327 783
132 297 173 402 173 447 0 35 0 35 -43 35 -23 0 -53 -7 -65 -16 -57 -39 -129
-176 -387 -723 -238 -509 -296 -637 -455 -1006 l-147 -340 -1046 -201 c-576
-110 -1050 -203 -1053 -207 -12 -12 80 -180 138 -254 32 -40 83 -92 114 -117
48 -38 60 -54 88 -122 40 -100 113 -210 191 -290 153 -155 673 -400 1085 -511
125 -33 298 -43 335 -19 35 23 77 102 131 247 45 119 48 125 65 108 22 -22 90
-36 241 -51 l120 -12 -7 -31 c-18 -89 -35 -229 -35 -292 0 -61 3 -74 19 -82
66 -36 436 -66 705 -58 265 8 416 36 550 104 60 31 150 114 181 168 83 144 92
352 26 589 -61 217 -67 480 -16 726 64 310 288 885 650 1670 514 1114 1725
3124 2506 4157 676 895 1606 1964 2432 2798 l208 210 380 758 c208 416 377
757 375 757 -3 0 -262 -251 -578 -558z"/>
<path d="M28122 17668 c-117 -333 -612 -1145 -1315 -2158 -305 -440 -404 -573
-446 -602 -58 -39 -129 -133 -471 -621 -167 -237 -419 -594 -560 -792 -141
-198 -440 -621 -665 -940 -419 -595 -592 -832 -724 -991 l-76 -91 -740 -141
-740 -141 -165 24 c-711 107 -1316 250 -1825 430 -244 87 -410 165 -561 265
l-31 20 8 -51 c15 -92 44 -137 175 -266 212 -209 393 -308 836 -458 449 -153
919 -266 1508 -364 521 -87 829 -117 1114 -108 228 7 341 28 460 85 102 49
173 107 283 230 170 191 283 346 888 1207 480 683 526 746 812 1102 252 314
246 306 610 828 165 237 402 576 527 755 887 1265 1426 2172 1470 2471 12 84
-34 215 -100 283 -51 52 -108 78 -184 84 l-65 4 -23 -64z"/>
<path d="M13480 14997 c-557 -550 -1285 -1219 -1745 -1603 -425 -355 -1322
-1007 -1770 -1286 -655 -408 -1288 -642 -1887 -699 -81 -7 -226 -10 -400 -6
-242 4 -309 9 -588 45 -599 77 -979 155 -1440 294 -652 197 -1167 449 -1503
737 -65 55 -120 101 -123 101 -9 0 26 -73 73 -152 100 -169 429 -469 693 -632
515 -319 1337 -597 2185 -740 195 -33 670 -92 855 -107 176 -14 528 -6 690 16
654 87 1299 359 2055 867 469 315 1139 812 1501 1114 281 235 808 707 1061
950 l72 69 262 615 c144 338 268 630 276 648 7 17 10 32 6 32 -5 -1 -127 -119
-273 -263z"/>
<path d="M18286 10328 l-33 -33 -6 -220 c-4 -121 -7 -321 -7 -444 l0 -224 -65
67 c-133 136 -259 191 -435 190 -92 0 -115 -4 -187 -31 -158 -60 -300 -176
-402 -328 -221 -331 -261 -741 -104 -1065 39 -82 59 -108 142 -190 78 -78 113
-105 187 -143 134 -68 237 -91 389 -84 66 3 147 13 180 22 83 23 191 75 248
118 l47 37 0 -56 c0 -91 34 -133 108 -134 36 0 50 6 76 33 l33 32 6 1193 c7
1095 6 1197 -9 1228 -33 70 -115 85 -168 32z m-399 -912 c127 -59 251 -223
327 -434 26 -72 26 -77 26 -344 l0 -271 -32 -56 c-101 -178 -300 -283 -503
-266 -99 8 -209 42 -275 85 -113 73 -206 210 -237 352 -22 99 -22 291 0 382
73 296 269 523 502 580 41 10 140 -5 192 -28z"/>
<path d="M22302 10157 c-70 -39 -74 -133 -7 -185 52 -41 130 -19 161 46 43 92
-64 188 -154 139z"/>
<path d="M25415 9684 c-95 -17 -214 -71 -300 -137 l-60 -45 -5 65 c-4 55 -9
68 -33 89 -33 28 -100 33 -135 8 -51 -35 -49 -11 -57 -916 l-7 -848 35 -35
c29 -29 42 -35 77 -35 34 0 48 6 75 33 l32 32 8 610 7 610 31 60 c110 207 367
349 530 291 136 -49 239 -207 286 -441 40 -200 46 -292 43 -710 -2 -287 1
-408 9 -428 26 -61 117 -76 171 -28 l33 29 8 254 c20 615 -21 966 -144 1217
-67 136 -157 232 -270 286 -119 56 -191 64 -334 39z"/>
<path d="M21135 9674 c-178 -28 -320 -126 -386 -267 -30 -64 -34 -83 -37 -177
-5 -125 15 -191 78 -263 56 -63 116 -99 297 -176 188 -80 230 -101 305 -152
91 -62 136 -134 162 -262 22 -103 20 -143 -8 -203 -53 -115 -149 -167 -306
-167 -108 0 -202 27 -290 83 -86 55 -104 95 -125 277 -13 111 -15 120 -45 145
-44 40 -110 39 -151 -1 -26 -26 -29 -36 -29 -93 0 -119 27 -257 65 -335 60
-121 179 -212 355 -269 73 -23 102 -27 210 -28 102 -1 138 3 195 21 188 59
318 196 356 374 27 125 -12 330 -86 454 -90 149 -202 227 -525 365 -215 91
-240 113 -240 207 0 108 61 195 161 228 74 25 196 17 271 -17 101 -47 147
-101 202 -241 30 -74 135 -85 187 -19 17 22 20 36 16 77 -19 184 -202 370
-418 423 -55 14 -172 22 -214 16z"/>
<path d="M22304 9671 c-11 -5 -33 -23 -47 -41 l-27 -32 0 -201 c0 -111 -5
-485 -11 -830 -7 -472 -7 -637 2 -664 13 -41 60 -73 107 -73 25 0 43 9 67 33
l32 32 6 140 c13 282 19 1549 8 1577 -18 47 -91 78 -137 59z"/>
<path d="M19490 9660 c-183 -29 -358 -142 -492 -320 -199 -262 -275 -727 -169
-1038 41 -118 84 -185 186 -288 124 -124 220 -176 393 -210 285 -55 599 65
780 299 55 72 132 220 132 255 0 64 -64 119 -128 108 -48 -7 -67 -27 -115
-121 -103 -200 -317 -334 -533 -335 -67 0 -193 33 -257 67 -82 44 -179 147
-220 234 -39 83 -52 133 -63 233 l-7 68 610 -7 c554 -7 612 -6 641 9 64 33 74
90 46 273 -28 192 -86 353 -172 480 -50 74 -163 181 -233 220 -111 63 -274 93
-399 73z m233 -244 c131 -54 240 -176 296 -332 29 -81 69 -250 60 -258 -2 -2
-241 -1 -530 2 l-526 5 14 66 c56 247 221 455 418 523 76 26 195 24 268 -6z"/>
<path d="M23515 9656 c-182 -36 -337 -138 -465 -307 -153 -204 -227 -466 -217
-774 5 -169 23 -248 83 -369 209 -422 762 -545 1162 -260 21 15 22 15 22 -2 0
-38 -50 -212 -83 -290 -85 -202 -206 -312 -397 -360 -84 -21 -213 -15 -295 15
-75 26 -185 101 -225 151 -17 21 -46 70 -65 109 -27 55 -43 75 -69 88 -47 22
-98 11 -130 -28 -38 -45 -34 -90 15 -189 78 -155 224 -278 407 -344 83 -29 94
-31 237 -31 144 0 154 2 245 33 124 43 188 81 271 159 182 172 292 452 334
852 17 160 19 502 4 786 -5 110 -13 292 -17 405 -7 168 -11 210 -25 231 -51
77 -171 59 -198 -30 l-12 -39 -66 55 c-148 122 -338 173 -516 139z m280 -251
c38 -18 87 -55 131 -99 157 -156 222 -403 212 -806 l-3 -145 -43 -67 c-84
-130 -208 -220 -358 -258 -195 -50 -372 -2 -515 140 -134 133 -175 255 -166
495 10 255 82 453 217 598 126 135 220 179 370 174 81 -2 105 -7 155 -32z"/>
</g>
</svg>
