<?xml version="1.0" standalone="no"?>
<!DOCTYPE svg PUBLIC "-//W3C//DTD SVG 20010904//EN"
 "http://www.w3.org/TR/2001/REC-SVG-20010904/DTD/svg10.dtd">
<svg version="1.0" xmlns="http://www.w3.org/2000/svg"
 width="1734.000000pt" height="1806.000000pt" viewBox="0 0 1734.000000 1806.000000"
 preserveAspectRatio="xMidYMid meet">

<g transform="translate(0.000000,1806.000000) scale(0.100000,-0.100000)"
fill="#000000" stroke="none">
<path d="M8513 18035 c-22 -42 -2873 -6164 -2873 -6169 0 -10 180 -7 270 4
106 13 285 55 367 86 169 64 419 212 548 325 186 163 314 362 530 829 122 262
293 645 615 1375 565 1282 532 1210 546 1183 28 -55 807 -1854 808 -1868 1
-13 -63 -15 -524 -15 -571 0 -566 0 -695 -59 -228 -105 -371 -366 -401 -728
l-7 -88 1001 0 1000 0 24 -29 c14 -16 51 -90 83 -165 31 -76 80 -172 107 -214
65 -99 229 -262 339 -334 213 -140 501 -255 734 -293 115 -19 319 -20 312 -2
-2 6 -620 1382 -1372 3057 -752 1675 -1375 3063 -1385 3085 -15 36 -18 38 -27
20z"/>
<path d="M607 14972 c-8 -3106 -1 -2846 -77 -2947 -20 -28 -54 -62 -74 -75
-20 -14 -36 -30 -36 -37 0 -15 77 -40 170 -54 138 -21 397 24 547 95 109 52
189 110 288 210 134 135 200 276 242 517 17 98 18 250 20 2592 l3 2487 -538 0
-539 0 -6 -2788z"/>
<path d="M4270 16645 l0 -1115 -892 -2 -893 -3 -3 -507 -2 -508 895 0 895 0
-2 -1187 -3 -1188 -27 -56 c-17 -33 -53 -80 -89 -114 -36 -35 -57 -61 -51 -67
14 -14 108 -36 181 -44 81 -8 235 10 361 42 174 44 346 146 477 286 126 135
184 275 222 537 19 131 20 227 26 2589 l7 2452 -551 0 -551 0 0 -1115z"/>
<path d="M15788 15860 l-3 -1900 -1050 1060 -1050 1059 -3 -745 c-1 -410 1
-751 5 -759 5 -7 612 -627 1351 -1379 l1343 -1366 242 2 242 3 3 2963 2 2962
-540 0 -540 0 -2 -1900z"/>
<path d="M11900 14998 c0 -1932 -3 -2762 -11 -2804 -17 -95 -80 -191 -164
-251 l-30 -22 39 -16 c154 -65 385 -55 631 26 142 47 232 106 371 244 131 131
180 207 223 349 58 189 55 75 58 2211 l3 1960 -510 480 c-281 264 -533 500
-560 524 l-50 44 0 -2745z"/>
<path d="M8509 10468 c-23 -42 -2861 -6133 -2866 -6151 -5 -15 3 -17 66 -17
156 0 376 36 530 87 215 70 488 239 646 397 244 244 264 285 1327 2692 156
353 287 643 291 645 11 5 827 -1874 819 -1883 -4 -4 -246 -8 -537 -10 -524 -3
-531 -4 -600 -27 -229 -76 -372 -247 -444 -533 -24 -94 -47 -277 -38 -302 6
-15 94 -16 1001 -16 l995 0 20 -21 c23 -25 35 -49 95 -193 102 -242 263 -423
512 -572 163 -98 411 -196 592 -234 95 -21 382 -40 382 -26 0 7 -2769 6178
-2775 6184 -2 2 -9 -7 -16 -20z"/>
<path d="M3484 10326 c-2 -6 -3 -238 -2 -515 l3 -504 130 -39 c169 -51 289
-101 415 -173 282 -161 510 -216 840 -202 163 7 294 31 448 82 122 41 252 100
252 114 0 40 -417 461 -609 614 -307 245 -551 383 -861 489 -238 81 -606 161
-616 134z"/>
<path d="M2515 10304 c-630 -120 -1153 -393 -1595 -834 -479 -478 -777 -1052
-874 -1685 -37 -239 -48 -574 -26 -810 59 -639 299 -1200 728 -1698 126 -146
349 -356 488 -461 134 -100 354 -235 534 -329 215 -113 471 -198 730 -244 121
-21 187 -26 392 -30 388 -8 566 14 906 112 501 144 856 356 1213 721 327 336
544 693 653 1076 91 318 142 785 134 1218 l-3 165 -1240 5 c-1379 6 -1276 0
-1389 74 -30 21 -64 50 -75 64 -23 31 -30 27 -42 -25 -40 -176 62 -516 217
-720 100 -131 254 -260 380 -319 161 -75 299 -94 702 -94 l294 0 -7 -32 c-27
-130 -114 -331 -200 -465 -74 -115 -285 -325 -412 -411 -292 -198 -657 -302
-1059 -302 -415 0 -705 103 -1079 384 -277 208 -479 448 -615 731 -257 535
-251 1272 14 1820 252 518 758 930 1306 1063 l75 18 3 517 c2 411 0 517 -10
516 -7 0 -71 -12 -143 -25z"/>
<path d="M11898 7442 l-3 -2837 -33 -67 c-23 -46 -51 -84 -92 -121 -33 -30
-60 -56 -60 -59 0 -9 50 -27 120 -43 123 -28 299 -14 485 40 224 65 452 236
568 427 20 34 53 110 71 168 70 214 66 58 66 2830 l0 2500 -560 0 -560 0 -2
-2838z"/>
<path d="M13670 9756 l0 -504 583 -5 c627 -4 668 -7 877 -62 128 -34 322 -130
378 -186 53 -54 115 -178 141 -280 51 -201 69 -559 37 -736 -34 -191 -107
-359 -199 -459 -113 -124 -373 -203 -771 -234 -71 -5 -333 -10 -582 -10 l-454
0 0 -510 0 -510 394 0 394 0 179 -252 c169 -238 316 -448 526 -753 206 -298
371 -474 570 -608 110 -74 368 -198 508 -245 229 -76 500 -107 734 -82 66 6
125 15 131 18 6 4 -312 442 -767 1057 -428 578 -778 1052 -778 1055 -1 3 37
18 83 33 383 125 711 410 886 772 144 296 210 619 210 1020 -1 1035 -399 1634
-1234 1855 -375 99 -712 130 -1408 130 l-438 0 0 -504z"/>
<path d="M15540 3200 l0 -390 35 0 35 0 0 390 0 390 -35 0 -35 0 0 -390z"/>
<path d="M10380 3300 l0 -190 185 0 185 0 0 190 0 190 -185 0 -185 0 0 -190z"/>
<path d="M14953 3480 c-13 -5 -23 -13 -23 -17 0 -12 252 -707 260 -716 4 -5
21 -2 37 5 l31 13 -132 362 c-72 200 -135 362 -141 362 -5 0 -20 -4 -32 -9z"/>
<path d="M16141 3468 c-58 -157 -251 -691 -251 -696 0 -4 14 -13 31 -19 26
-10 31 -9 37 5 102 265 256 708 248 713 -36 21 -56 20 -65 -3z"/>
<path d="M15308 3263 c-16 -2 -28 -10 -28 -16 1 -24 79 -449 84 -454 2 -3 19
-2 36 2 22 5 30 11 26 23 -2 10 -21 115 -42 235 -21 119 -40 216 -43 216 -3
-1 -18 -4 -33 -6z"/>
<path d="M15756 3052 c-21 -119 -40 -224 -42 -233 -3 -12 4 -18 28 -22 18 -2
35 -3 37 -1 5 5 84 455 80 458 -2 2 -18 6 -35 9 l-31 6 -37 -217z"/>
<path d="M14418 3167 l-26 -22 245 -290 c134 -159 247 -291 251 -292 4 -2 18
6 32 16 22 17 23 21 10 37 -45 57 -473 564 -479 568 -4 3 -19 -5 -33 -17z"/>
<path d="M16463 2918 c-286 -341 -262 -307 -233 -330 13 -10 27 -17 32 -16 5
2 116 131 247 288 246 294 247 295 200 320 -14 8 -54 -34 -246 -262z"/>
<path d="M14828 3084 c-16 -8 -28 -17 -28 -19 0 -3 52 -95 116 -205 l116 -200
29 15 c16 9 29 18 29 21 0 7 -219 386 -228 396 -4 3 -19 0 -34 -8z"/>
<path d="M16239 3028 c-23 -40 -67 -116 -97 -168 -30 -52 -63 -109 -74 -127
l-19 -32 31 -16 c18 -9 33 -15 35 -13 1 2 53 90 115 197 l111 195 -23 18 c-13
10 -26 18 -30 18 -4 0 -26 -33 -49 -72z"/>
<path d="M2907 1784 c-274 -548 -495 -999 -492 -1002 3 -4 36 -8 73 -10 137
-8 285 49 384 148 54 54 73 89 295 535 l237 477 112 -224 c62 -122 113 -229
113 -235 1 -8 -12 -13 -32 -13 -62 0 -129 -31 -183 -85 -70 -70 -95 -138 -101
-275 l-5 -105 19 35 c11 21 33 43 56 53 34 17 55 18 241 12 l203 -8 43 -65
c126 -191 316 -291 479 -252 28 6 51 15 50 18 0 4 -224 454 -497 1000 l-497
992 -498 -996z"/>
<path d="M8115 2321 l-229 -460 104 -205 c58 -113 107 -206 110 -206 3 0 59
108 125 240 l119 239 300 -596 300 -596 497 994 c274 547 498 997 498 1002 1
4 -92 7 -207 7 l-207 0 -285 -571 c-157 -314 -288 -573 -292 -575 -4 -3 -142
263 -305 591 l-298 595 -230 -459z"/>
<path d="M11470 1836 c0 -1052 4 -997 -67 -1036 l-38 -20 115 3 c99 2 123 6
170 28 77 36 124 80 157 147 l28 57 2 720 2 720 -145 130 c-80 72 -163 145
-184 163 l-40 34 0 -946z"/>
<path d="M14431 2752 l-20 -29 176 -147 c169 -141 177 -146 194 -129 10 10 19
23 21 29 2 8 -198 184 -334 292 -14 11 -19 9 -37 -16z"/>
<path d="M16540 2659 c-80 -67 -158 -133 -174 -146 l-29 -24 26 -26 25 -26
159 133 c87 73 165 139 173 147 13 11 11 16 -11 38 l-25 25 -144 -121z"/>
<path d="M600 1808 c0 -918 0 -934 -20 -966 -11 -18 -34 -39 -51 -46 -30 -13
-30 -13 34 -19 216 -20 371 86 406 278 7 39 11 328 11 872 l0 813 -190 0 -190
0 0 -932z"/>
<path d="M1230 2557 l0 -186 33 -5 c17 -3 58 -7 90 -11 68 -6 174 -44 239 -86
25 -17 77 -63 115 -102 112 -119 163 -247 163 -414 0 -258 -164 -485 -412
-567 -42 -15 -111 -29 -153 -33 l-75 -6 0 -189 0 -189 83 6 c105 8 176 21 257
47 317 101 565 369 657 708 14 50 17 103 17 235 0 155 -3 178 -27 258 -51 167
-135 306 -256 428 -175 174 -391 273 -623 286 l-108 6 0 -186z"/>
<path d="M4828 1796 l-3 -944 -25 -27 c-14 -15 -34 -30 -44 -35 -35 -13 106
-21 169 -9 125 23 214 92 259 202 21 52 21 59 24 905 l3 852 -191 0 -190 0 -2
-944z"/>
<path d="M5460 2556 l0 -184 208 -4 c188 -4 212 -6 258 -27 196 -86 237 -340
78 -480 -73 -64 -108 -71 -341 -71 l-203 0 0 -190 0 -189 122 -3 122 -3 135
-220 c101 -165 152 -237 202 -288 89 -89 171 -129 281 -135 78 -5 168 11 168
30 0 5 -85 158 -190 340 -104 182 -190 334 -190 338 0 5 26 23 58 40 115 66
234 216 283 360 30 89 38 267 15 364 -41 173 -180 350 -342 434 -124 63 -173
72 -436 72 l-228 0 0 -184z"/>
<path d="M7243 1743 c275 -549 501 -1000 503 -1002 1 -2 51 92 109 209 l106
211 -398 790 -398 789 -211 0 -211 0 500 -997z"/>
<path d="M10380 1838 c0 -585 -4 -919 -11 -948 -12 -51 -31 -77 -74 -97 -27
-12 -19 -13 90 -10 105 2 127 6 175 29 93 44 148 111 175 213 13 51 15 173 15
887 l0 828 -185 0 -185 0 0 -902z"/>
<path d="M12740 2195 c0 -300 -2 -545 -5 -545 -3 0 -140 120 -303 268 -163
147 -305 273 -315 281 -16 13 -17 -2 -17 -267 l0 -280 473 -424 c259 -233 489
-439 510 -457 l37 -33 0 1001 0 1001 -190 0 -190 0 0 -545z"/>
<path d="M14019 2691 l-16 -28 322 -187 c178 -102 326 -186 330 -186 10 0 34
32 35 47 0 9 -594 360 -640 377 -10 4 -21 -4 -31 -23z"/>
<path d="M16785 2540 c-170 -99 -314 -181 -320 -183 -5 -2 0 -17 11 -35 l19
-31 322 186 322 185 -15 29 c-8 16 -18 29 -22 29 -4 0 -146 -81 -317 -180z"/>
<path d="M15490 2513 c-185 -21 -376 -123 -497 -264 -62 -73 -118 -171 -149
-264 -39 -115 -46 -304 -15 -425 56 -227 198 -403 406 -505 129 -64 196 -80
345 -80 149 0 216 16 345 80 190 93 321 245 391 450 21 64 28 105 32 201 6
156 -12 243 -80 383 -44 92 -61 115 -141 195 -51 50 -118 106 -150 125 -141
83 -326 122 -487 104z m21 -211 c-6 -12 -11 -31 -11 -44 0 -13 54 -133 120
-267 130 -265 139 -295 100 -358 -41 -68 -112 -88 -185 -53 -45 22 -48 26
-136 204 -105 213 -119 266 -95 350 21 70 81 136 158 171 29 13 54 22 56 20 2
-2 -1 -12 -7 -23z m471 -74 c-23 -23 -12 -63 53 -199 77 -158 95 -218 95 -314
0 -147 -50 -265 -160 -376 -113 -114 -217 -158 -375 -159 -154 0 -263 46 -376
159 -68 68 -83 91 -147 222 -61 125 -75 148 -102 159 l-32 13 24 13 c12 8 47
21 76 30 110 33 199 -18 270 -153 49 -94 87 -133 167 -170 79 -36 189 -39 250
-6 97 52 157 158 158 278 0 64 -4 82 -37 151 -63 132 -61 203 5 278 40 45 99
85 129 86 11 0 11 -3 2 -12z"/>
<path d="M15372 2171 c-20 -12 -10 -46 13 -46 14 0 20 7 20 24 0 27 -13 35
-33 22z"/>
<path d="M15852 2078 c2 -15 11 -24 26 -26 18 -3 22 1 22 22 0 21 -5 26 -26
26 -21 0 -25 -4 -22 -22z"/>
<path d="M15106 1723 c-4 -9 0 -23 9 -32 13 -14 17 -14 30 0 19 19 10 49 -15
49 -10 0 -21 -8 -24 -17z"/>
<path d="M14175 2308 c-7 -18 -12 -34 -11 -35 4 -5 386 -142 402 -145 11 -2
21 7 30 28 l13 30 -162 59 c-89 32 -184 66 -210 77 l-48 18 -14 -32z"/>
<path d="M16750 2268 c-107 -39 -197 -73 -199 -74 -6 -5 21 -64 29 -64 6 0
392 140 397 144 5 4 -21 66 -27 65 -3 0 -93 -32 -200 -71z"/>
<path d="M13807 2108 c-2 -18 -4 -33 -3 -34 14 -9 720 -124 726 -118 5 5 10
20 12 34 l3 25 -350 62 c-192 34 -357 62 -366 63 -11 0 -18 -11 -22 -32z"/>
<path d="M17015 2090 c-148 -27 -300 -54 -337 -60 l-67 -12 6 -31 c3 -18 7
-33 8 -35 3 -3 708 119 713 124 2 1 1 16 -3 33 -5 24 -12 31 -28 30 -12 -1
-143 -23 -292 -49z"/>
<path d="M14090 1795 l0 -35 210 0 c200 0 210 1 210 19 0 11 3 26 6 35 5 14
-17 16 -210 16 l-216 0 0 -35z"/>
<path d="M16640 1818 c0 -7 3 -23 6 -35 6 -21 12 -23 74 -23 37 0 128 3 203 7
l137 6 0 29 0 28 -210 0 c-161 0 -210 -3 -210 -12z"/>
<path d="M14155 1585 c-192 -35 -351 -64 -352 -64 -2 -1 8 -64 11 -67 1 -1
159 26 351 60 l350 62 3 37 c2 20 0 37 -5 36 -4 -1 -165 -30 -358 -64z"/>
<path d="M16638 1609 c-3 -17 0 -33 6 -35 6 -2 162 -30 346 -62 l335 -58 8 29
c5 16 6 32 2 35 -6 6 -648 122 -676 122 -11 0 -18 -11 -21 -31z"/>
<path d="M14352 1392 l-184 -67 6 -29 c4 -16 8 -32 11 -34 7 -7 385 130 385
139 0 16 -20 59 -27 58 -5 0 -90 -30 -191 -67z"/>
<path d="M16599 1433 c-5 -14 -8 -30 -6 -36 2 -8 339 -136 359 -137 6 0 31 61
26 65 -2 1 -50 19 -108 40 -58 21 -140 51 -183 66 l-78 29 -10 -27z"/>
<path d="M14310 1115 c-162 -96 -296 -178 -298 -184 -5 -14 16 -51 29 -51 10
0 574 325 593 341 9 8 -11 70 -23 68 -3 0 -139 -79 -301 -174z"/>
<path d="M16525 1249 c-9 -17 -15 -32 -13 -34 14 -12 580 -335 588 -335 5 0
16 12 24 28 l14 27 -251 145 c-138 80 -272 157 -299 173 l-47 27 -16 -31z"/>
<path d="M14555 994 l-147 -127 26 -25 25 -26 23 20 c13 11 73 63 133 114 61
51 116 99 123 106 12 10 11 16 -3 38 -10 14 -21 26 -26 26 -4 0 -74 -57 -154
-126z"/>
<path d="M16420 1089 c-12 -16 -21 -32 -19 -33 2 -2 67 -56 143 -120 l140
-117 25 26 26 26 -26 22 c-15 12 -81 68 -147 125 l-121 102 -21 -31z"/>
<path d="M14630 734 c-255 -304 -237 -279 -214 -305 10 -11 23 -18 30 -17 11
3 449 518 442 521 -2 1 -14 12 -28 23 l-25 22 -205 -244z"/>
<path d="M16286 947 l-28 -23 192 -229 c106 -127 204 -243 217 -259 26 -31 44
-29 66 6 9 14 -115 170 -412 520 -4 4 -19 -3 -35 -15z"/>
<path d="M14892 690 c-51 -87 -92 -161 -92 -163 0 -6 60 -30 64 -26 2 2 44 75
94 161 l90 157 -24 15 c-13 9 -27 16 -32 16 -5 0 -50 -72 -100 -160z"/>
<path d="M16136 835 c-10 -8 -23 -16 -28 -17 -8 -3 150 -289 171 -311 9 -9 61
12 61 25 0 10 -159 288 -174 305 -8 9 -15 9 -30 -2z"/>
<path d="M15045 458 c-60 -166 -111 -310 -113 -319 -2 -12 6 -19 28 -24 17 -4
33 -5 34 -3 14 17 225 623 219 629 -4 4 -19 10 -33 14 -25 6 -27 1 -135 -297z"/>
<path d="M15955 747 c-16 -5 -31 -11 -32 -12 -2 -1 191 -540 218 -606 10 -25
13 -26 40 -16 16 6 29 17 29 23 0 11 -218 616 -223 620 -1 1 -15 -3 -32 -9z"/>
<path d="M15340 693 c0 -5 -14 -84 -30 -178 -16 -93 -30 -171 -30 -172 0 -4
62 -14 66 -10 2 2 18 82 35 177 25 140 28 175 17 181 -16 11 -58 12 -58 2z"/>
<path d="M15752 693 c-13 -3 -22 -10 -19 -16 2 -7 17 -88 33 -180 l29 -168 29
5 c16 4 32 8 34 11 5 4 -42 295 -54 338 -5 17 -10 18 -52 10z"/>
<path d="M15540 345 l0 -335 35 0 35 0 0 335 0 335 -35 0 -35 0 0 -335z"/>
</g>
</svg>
