<?xml version="1.0" standalone="no"?>
<!DOCTYPE svg PUBLIC "-//W3C//DTD SVG 20010904//EN"
 "http://www.w3.org/TR/2001/REC-SVG-20010904/DTD/svg10.dtd">
<svg version="1.0" xmlns="http://www.w3.org/2000/svg"
 width="3848.000000pt" height="3244.000000pt" viewBox="0 0 3848.000000 3244.000000"
 preserveAspectRatio="xMidYMid meet">

<g transform="translate(0.000000,3244.000000) scale(0.100000,-0.100000)"
fill="#000000" stroke="none">
<path d="M15885 32433 c-2213 -41 -4446 -556 -6459 -1487 -2315 -1072 -4364
-2691 -5943 -4696 -2725 -3461 -3916 -7848 -3323 -12235 407 -3009 1666 -5852
3629 -8200 319 -381 591 -677 990 -1075 553 -552 1069 -1002 1671 -1457 2333
-1764 5073 -2857 7970 -3178 597 -66 952 -86 1638 -92 588 -6 876 2 1317 33
3541 249 6868 1638 9546 3985 355 311 826 768 1154 1119 2525 2705 4044 6160
4319 9825 36 473 41 623 41 1240 0 721 -15 1043 -76 1650 -453 4514 -2788
8629 -6444 11360 -2039 1523 -4416 2545 -6920 2975 -779 134 -1515 206 -2340
230 -317 9 -436 9 -770 3z m3511 -6734 c53 -14 90 -53 100 -107 30 -160 -163
-570 -733 -1557 -612 -1060 -1045 -1948 -1494 -3063 -197 -489 -246 -655 -210
-711 28 -44 251 380 370 704 73 197 100 261 221 510 308 637 808 1462 1313
2170 404 565 899 1177 1182 1461 175 176 199 189 340 189 97 0 103 -1 185 -41
177 -86 438 -305 553 -465 68 -95 183 -313 212 -403 95 -294 -19 -793 -363
-1581 -77 -178 -266 -583 -735 -1580 -287 -611 -409 -866 -662 -1390 -980
-2027 -1595 -3371 -1595 -3489 0 -22 14 -20 31 3 58 80 377 483 479 605 367
440 456 545 589 696 586 661 2075 2157 2705 2718 494 440 930 717 1263 803
179 45 375 45 545 -2 97 -27 251 -100 271 -130 40 -57 11 -160 -136 -475 -46
-99 -138 -282 -204 -409 -645 -1227 -1213 -2534 -1808 -4165 -205 -563 -234
-690 -156 -690 45 0 62 31 125 221 231 698 636 1660 1036 2459 356 711 866
1600 1280 2230 277 422 410 661 410 737 0 65 27 83 123 83 139 0 376 -82 662
-230 574 -295 757 -471 805 -773 34 -211 -44 -555 -232 -1026 -106 -265 -641
-1445 -973 -2146 -214 -452 -545 -1171 -701 -1522 -75 -169 -171 -381 -214
-472 -160 -341 -354 -797 -579 -1358 -107 -268 -221 -592 -221 -628 0 -8 -20
-18 -52 -24 -151 -31 -3554 -681 -3563 -681 -20 0 -74 105 -86 167 -8 42 -10
131 -6 275 4 189 9 230 37 363 94 446 209 819 381 1243 55 136 153 382 218
547 169 428 278 677 558 1275 324 690 549 1144 1457 2943 186 367 335 667 331
667 -10 0 -1032 -998 -1270 -1241 -1053 -1073 -2120 -2324 -2762 -3239 -656
-936 -1530 -2389 -2051 -3410 l-114 -225 -607 -117 c-333 -64 -607 -115 -608
-114 -2 1 17 47 41 102 24 54 54 132 67 172 25 80 21 104 -21 110 -79 12 -119
-35 -260 -307 l-65 -126 -1395 -267 c-767 -147 -1402 -268 -1411 -268 -14 0
-10 22 28 152 126 430 322 965 708 1923 343 853 467 1154 745 1805 145 338
269 631 277 650 12 27 -40 -19 -214 -190 -638 -628 -1349 -1281 -1823 -1676
-338 -281 -1039 -800 -1491 -1102 -502 -336 -955 -567 -1388 -708 -367 -120
-702 -174 -1081 -174 -219 0 -333 9 -700 56 -765 96 -1355 241 -1958 480 -418
166 -687 321 -970 559 -314 263 -407 395 -516 727 -121 366 -188 835 -189
1308 0 306 24 452 149 889 99 347 188 592 327 903 332 739 938 1694 1592 2508
934 1162 2035 2127 2945 2581 318 159 846 343 1355 474 165 43 349 90 408 105
60 16 107 25 105 20 -3 -9 -477 -398 -888 -729 -658 -529 -1039 -869 -1561
-1390 -974 -975 -1725 -1981 -1933 -2588 -57 -168 -84 -289 -68 -305 33 -33
174 162 407 562 324 557 681 1005 1270 1596 587 588 1114 1039 1965 1679 679
510 1120 816 1395 966 76 42 84 44 179 47 514 21 1474 -410 2101 -942 223
-190 328 -397 342 -676 33 -673 -564 -1603 -1692 -2635 -340 -311 -964 -825
-1282 -1056 -471 -342 -1053 -669 -1458 -821 -303 -114 -600 -155 -910 -127
-220 20 -356 17 -428 -11 -89 -34 -121 -68 -182 -194 -97 -202 -359 -894 -424
-1121 -77 -267 -91 -384 -98 -822 -6 -359 3 -563 33 -788 21 -157 37 -207 79
-243 66 -58 145 -55 341 12 391 134 1443 627 1964 919 721 405 1729 1087 2469
1669 690 544 1299 1082 2222 1968 118 113 304 289 415 392 181 169 203 193
229 250 1897 4259 3455 7196 4191 7899 121 114 194 160 288 179 59 11 72 11
122 -1z m-8406 -1659 c260 -19 622 -75 620 -95 -2 -14 -136 -65 -654 -245
-1586 -552 -2067 -742 -2791 -1100 -908 -450 -1702 -961 -2450 -1579 -60 -50
-113 -91 -116 -91 -7 0 -4 25 22 153 116 570 611 1245 1289 1761 289 220 563
388 915 561 733 360 1520 572 2355 634 156 12 656 12 810 1z m16986 -5875 c28
-12 67 -39 87 -60 65 -67 114 -201 102 -279 -29 -187 -231 -583 -593 -1161
-362 -578 -1139 -1708 -1200 -1745 -65 -40 -133 -129 -527 -690 -187 -266
-688 -973 -702 -989 -2 -3 -373 -76 -826 -162 -452 -87 -834 -160 -850 -163
-24 -5 -18 6 60 97 101 118 307 377 656 822 133 171 380 479 548 685 661 812
1027 1277 1589 2020 480 634 850 1110 1096 1410 108 131 156 170 265 212 111
42 205 43 295 3z"/>
<path d="M11710 20211 c-184 -69 -516 -266 -775 -461 -274 -207 -810 -642
-990 -805 -236 -213 -832 -819 -1117 -1136 -248 -277 -366 -452 -427 -634 -52
-158 -53 -280 -2 -337 50 -56 180 -46 367 27 115 45 361 169 499 250 72 42
231 136 355 208 267 155 355 211 475 302 207 157 399 330 713 640 606 597
1074 1171 1178 1445 26 70 28 85 29 220 0 141 -1 146 -30 205 -55 110 -129
130 -275 76z"/>
</g>
</svg>
