<?xml version="1.0" standalone="no"?>
<!DOCTYPE svg PUBLIC "-//W3C//DTD SVG 20010904//EN"
 "http://www.w3.org/TR/2001/REC-SVG-20010904/DTD/svg10.dtd">
<svg version="1.0" xmlns="http://www.w3.org/2000/svg"
 width="1630.000000pt" height="1242.000000pt" viewBox="0 0 1630.000000 1242.000000"
 preserveAspectRatio="xMidYMid meet">

<g transform="translate(0.000000,1242.000000) scale(0.100000,-0.100000)"
fill="#000000" stroke="none">
<path d="M3645 6669 c-141 -35 -467 -170 -537 -222 -18 -14 -53 -36 -78 -49
-108 -58 -354 -218 -380 -246 -8 -9 -38 -35 -65 -57 -75 -59 -236 -227 -322
-335 -42 -52 -84 -102 -94 -110 -9 -8 -33 -41 -53 -72 -20 -31 -40 -59 -46
-63 -5 -3 -30 -36 -54 -73 -25 -37 -68 -98 -96 -137 -27 -38 -55 -81 -61 -95
-6 -14 -21 -47 -34 -75 -12 -27 -27 -63 -33 -80 -5 -16 -19 -52 -30 -80 -28
-67 -51 -140 -65 -200 -7 -27 -15 -54 -18 -60 -9 -15 -108 -472 -114 -525 -1
-14 -5 -32 -8 -40 -3 -8 -8 -33 -11 -55 -2 -22 -9 -62 -15 -90 -10 -44 -17
-120 -25 -265 -2 -45 19 -293 29 -340 21 -94 90 -290 142 -400 40 -86 125
-358 152 -490 4 -19 17 -66 29 -105 55 -184 60 -458 12 -570 -5 -11 -14 -39
-20 -62 -12 -50 -71 -131 -170 -235 -58 -61 -85 -82 -129 -99 -99 -38 -292
-21 -378 32 -41 25 -92 85 -117 136 -10 21 -21 45 -25 53 -5 8 -16 42 -25 75
-10 33 -21 67 -26 75 -11 23 -18 61 -35 194 -17 131 -13 262 10 336 8 25 38
121 67 214 44 138 59 176 89 210 56 64 64 84 43 107 -9 10 -27 19 -40 19 -26
0 -124 -58 -124 -73 0 -6 -11 -25 -25 -43 -14 -18 -25 -35 -25 -38 0 -3 -11
-29 -24 -58 -58 -129 -67 -156 -87 -262 -12 -61 -25 -121 -30 -134 -15 -39
-22 -359 -9 -431 39 -224 90 -374 148 -433 44 -46 134 -91 224 -112 106 -26
290 -16 393 20 231 80 427 260 488 449 57 176 63 432 16 630 -6 22 -11 47 -13
55 -1 8 -5 22 -9 30 -4 8 -19 60 -33 115 -14 55 -29 114 -34 130 -4 17 -17 65
-29 107 -11 42 -27 90 -35 105 -8 16 -24 57 -36 92 -11 35 -27 73 -35 85 -9
13 -13 25 -10 28 3 2 -6 27 -19 54 -41 86 -78 224 -95 354 -15 111 -16 146 -5
281 17 208 62 478 114 679 5 19 12 51 15 71 6 38 49 174 108 339 39 111 98
234 144 305 65 100 167 241 217 302 28 34 63 79 79 100 30 41 246 273 287 307
14 12 43 39 65 61 22 22 63 56 90 76 49 36 213 139 220 139 2 0 24 14 48 30
25 17 48 30 53 30 4 0 17 9 29 20 22 20 192 110 209 110 5 0 28 8 50 18 69 31
179 68 276 93 77 19 164 -7 222 -68 33 -35 94 -149 110 -206 26 -93 2 -422
-37 -497 -8 -16 -15 -36 -15 -45 0 -26 -63 -160 -100 -215 -10 -14 -27 -47
-39 -75 -65 -148 -133 -260 -225 -371 -28 -34 -73 -90 -101 -125 -27 -34 -77
-93 -110 -129 -33 -36 -94 -103 -135 -149 -41 -46 -100 -109 -130 -140 -30
-32 -71 -77 -90 -102 -40 -51 -188 -200 -243 -244 -31 -24 -38 -37 -39 -67 -1
-20 6 -48 16 -62 14 -22 24 -26 67 -26 40 0 60 6 95 30 24 17 44 34 44 38 0 4
28 37 63 74 34 37 76 84 94 105 17 21 50 61 73 88 23 28 65 75 94 105 28 30
66 73 85 95 18 22 63 72 100 110 189 202 435 532 515 693 18 37 56 112 83 167
28 55 57 123 66 150 31 98 66 241 72 290 10 93 12 276 3 318 -5 23 -12 56 -15
72 -3 17 -38 80 -79 141 -69 104 -78 113 -149 153 -48 28 -91 45 -118 47 -133
11 -177 10 -242 -7z"/>
<path d="M9200 6070 c-216 -44 -465 -176 -695 -368 -11 -10 -47 -38 -80 -64
-92 -72 -164 -147 -253 -265 -19 -26 -47 -62 -61 -79 -84 -101 -111 -138 -225
-304 -17 -25 -43 -70 -59 -100 -15 -30 -43 -82 -63 -115 -33 -56 -177 -335
-196 -380 -51 -125 -146 -446 -194 -660 -44 -198 -56 -423 -28 -523 42 -154
136 -373 180 -423 8 -8 14 -20 14 -26 0 -10 52 -56 114 -100 48 -35 180 -65
246 -57 30 3 62 12 70 19 8 7 26 16 39 20 61 18 269 174 328 245 21 25 48 56
60 70 13 14 23 30 23 36 0 6 9 19 20 29 22 20 100 166 100 188 0 8 9 35 21 61
11 26 27 73 35 104 8 31 18 66 23 77 8 20 29 119 58 275 17 95 12 253 -9 298
-14 29 -51 41 -72 23 -7 -6 -18 -30 -26 -53 -7 -24 -16 -54 -21 -68 -5 -14
-11 -43 -14 -65 -13 -106 -18 -133 -46 -235 -5 -19 -18 -69 -28 -110 -40 -156
-110 -325 -174 -420 -68 -102 -223 -235 -345 -298 -78 -40 -193 -20 -258 45
-87 87 -207 434 -190 546 3 18 8 63 11 101 4 61 71 371 94 436 5 14 18 57 29
95 12 39 28 95 37 125 41 136 169 405 299 624 23 39 52 89 66 113 14 23 34 53
45 65 11 13 44 58 73 102 46 67 159 209 259 323 37 43 181 170 234 208 23 17
67 49 98 72 66 50 200 133 213 133 5 0 52 20 104 45 51 25 100 45 106 45 7 1
31 8 53 16 22 8 62 17 89 19 47 4 51 3 91 -38 52 -51 69 -104 67 -204 -2 -131
-44 -247 -125 -346 -120 -147 -382 -357 -465 -373 -40 -8 -82 -59 -82 -101 0
-16 10 -39 21 -52 61 -66 234 28 513 279 161 144 226 253 280 468 19 77 22
133 8 191 -6 25 -8 49 -6 53 3 5 1 14 -4 21 -5 7 -12 26 -16 42 -9 38 -56 112
-93 147 -43 41 -114 76 -163 81 -25 2 -83 -4 -130 -13z"/>
<path d="M13185 6059 c-131 -13 -281 -36 -355 -54 -36 -9 -101 -23 -145 -32
-84 -16 -108 -30 -131 -76 -14 -25 -13 -30 12 -62 40 -52 84 -60 174 -28 25 8
58 17 74 19 17 2 63 13 103 24 68 20 104 26 313 51 105 13 436 4 578 -16 57
-8 106 -17 110 -19 4 -2 25 -7 47 -10 46 -7 144 -40 186 -62 39 -19 37 -50 -5
-95 -45 -48 -142 -126 -166 -134 -11 -4 -20 -11 -20 -16 0 -5 -5 -9 -12 -9 -6
0 -27 -12 -47 -27 -33 -26 -123 -81 -226 -138 -22 -12 -64 -36 -93 -54 -29
-17 -57 -31 -63 -31 -5 0 -27 -11 -48 -25 -22 -13 -52 -27 -68 -31 -29 -8 -86
-31 -159 -65 -23 -11 -73 -30 -110 -43 -38 -14 -91 -32 -117 -41 -26 -10 -50
-15 -53 -12 -6 6 61 144 139 288 62 113 65 160 17 201 -19 15 -40 28 -47 28
-42 0 -62 -26 -133 -173 -41 -84 -76 -159 -78 -167 -2 -8 -12 -26 -22 -40 -9
-14 -34 -66 -54 -116 -30 -73 -46 -98 -82 -128 -36 -30 -44 -43 -44 -71 0 -19
5 -37 11 -41 15 -9 4 -46 -47 -149 -24 -49 -44 -95 -44 -102 0 -11 -27 -71
-50 -113 -5 -8 -24 -47 -44 -86 -20 -39 -70 -133 -112 -209 -82 -149 -137
-297 -128 -345 9 -42 39 -70 77 -70 35 0 57 15 57 38 0 25 75 189 140 307 71
127 90 164 149 281 34 67 61 126 61 132 0 7 13 40 29 74 16 35 39 88 52 118
13 30 28 60 33 66 6 7 49 19 96 28 47 9 103 21 125 27 288 68 637 89 1009 59
220 -17 435 -65 475 -104 55 -55 -45 -251 -201 -394 -75 -70 -211 -135 -453
-218 -55 -19 -109 -39 -120 -45 -11 -5 -33 -13 -50 -19 -16 -5 -73 -25 -125
-45 -52 -20 -149 -52 -215 -71 -66 -20 -142 -44 -170 -54 -27 -10 -61 -20 -75
-23 -23 -5 -156 -45 -270 -81 -76 -24 -190 -56 -310 -88 -281 -73 -344 -89
-485 -122 -82 -19 -184 -46 -225 -60 -41 -14 -85 -26 -97 -26 -14 0 -31 -13
-48 -37 -30 -44 -32 -74 -7 -96 23 -21 105 -24 137 -5 31 17 420 120 508 133
15 3 62 14 105 25 42 12 111 30 152 41 41 11 93 25 115 30 21 6 44 14 50 18 5
5 26 11 45 15 19 3 85 22 145 41 61 20 127 40 148 45 20 6 56 15 80 21 23 6
58 17 77 24 19 7 125 43 235 79 110 36 214 70 230 76 17 6 93 31 170 56 77 25
149 49 160 54 11 5 58 23 103 40 46 17 93 37 105 45 12 8 28 15 36 15 8 0 28
11 45 24 17 12 45 30 63 39 18 10 72 55 120 101 68 65 96 101 125 158 51 101
69 161 75 246 4 67 3 75 -22 108 -14 19 -36 44 -48 55 -24 23 -137 79 -159 79
-8 0 -18 4 -23 9 -18 16 -226 55 -355 66 -25 2 -73 7 -107 10 -33 4 -165 7
-292 7 -127 0 -231 3 -231 7 0 4 42 26 93 50 121 58 323 171 420 238 43 29 82
53 88 53 5 0 17 8 27 18 10 9 36 30 58 47 68 51 144 132 160 170 12 29 13 47
5 91 -12 62 -21 77 -73 123 -92 80 -327 150 -598 177 -95 9 -405 12 -485 3z"/>
<path d="M10211 5787 c-15 -7 -43 -47 -73 -106 -26 -52 -63 -118 -82 -145 -19
-28 -62 -98 -97 -154 -76 -124 -76 -123 -163 -254 -91 -134 -216 -340 -216
-354 0 -2 -17 -30 -39 -62 -21 -31 -49 -77 -61 -102 -12 -25 -32 -58 -42 -73
-11 -16 -31 -49 -45 -75 -44 -83 -58 -107 -69 -122 -7 -8 -40 -71 -73 -140
-34 -69 -69 -138 -78 -155 -81 -151 -116 -227 -227 -494 -30 -74 -61 -141 -69
-150 -46 -57 -51 -118 -12 -156 20 -21 34 -25 84 -25 l59 0 51 63 c118 146
152 185 203 232 87 82 267 228 301 247 12 6 43 28 69 49 52 41 217 140 398
239 63 35 140 77 170 95 58 34 87 51 235 130 97 52 152 90 173 117 7 10 20 18
28 18 8 0 14 10 14 25 0 25 -1 25 -62 20 -63 -4 -154 -31 -206 -59 -15 -8 -58
-29 -97 -47 -65 -29 -224 -108 -339 -168 -237 -126 -507 -301 -688 -448 -42
-35 -79 -63 -81 -63 -3 0 6 21 19 48 208 424 278 565 301 603 16 25 41 67 57
95 16 27 46 76 66 109 42 67 165 278 202 343 13 23 38 62 56 85 39 50 110 158
134 202 9 17 23 37 32 44 9 8 16 17 16 22 0 5 25 45 55 90 30 45 55 83 55 85
0 2 20 35 45 73 25 38 45 72 45 75 0 8 60 95 71 101 27 18 -17 145 -50 145
-11 0 -25 2 -33 5 -7 3 -24 -1 -37 -8z"/>
<path d="M11492 5723 c-7 -3 -31 -41 -54 -86 -22 -45 -65 -124 -96 -177 -30
-52 -70 -124 -90 -160 -59 -112 -103 -180 -114 -180 -6 0 -8 -3 -5 -6 6 -6
-50 -118 -73 -149 -16 -21 -120 -232 -140 -285 -12 -30 -27 -64 -34 -75 -7
-11 -21 -45 -31 -75 -10 -30 -21 -59 -25 -65 -4 -5 -11 -26 -15 -45 -4 -19
-12 -44 -18 -55 -6 -11 -12 -29 -13 -40 -1 -11 -7 -47 -13 -80 -5 -33 -9 -125
-7 -205 3 -184 16 -213 122 -287 30 -20 38 -21 118 -13 75 8 94 14 133 42 48
35 139 133 303 328 52 62 109 129 126 149 17 20 44 54 60 76 16 22 65 85 109
139 44 54 98 124 120 156 22 32 61 85 88 118 26 33 47 63 47 66 0 3 22 38 49
78 111 167 131 201 213 364 29 56 55 181 45 208 -8 19 -55 21 -78 3 -9 -7 -26
-30 -38 -52 -12 -22 -32 -58 -45 -80 -107 -184 -133 -225 -169 -274 -23 -31
-63 -87 -89 -126 -26 -38 -55 -79 -65 -90 -10 -11 -34 -42 -53 -70 -19 -27
-48 -66 -65 -86 -16 -20 -55 -69 -85 -109 -30 -40 -72 -93 -94 -119 -61 -73
-67 -81 -145 -181 -41 -52 -92 -111 -114 -131 -21 -20 -47 -48 -57 -64 -28
-42 -141 -155 -172 -171 -40 -21 -73 -18 -86 9 -17 35 -21 194 -6 279 12 72
43 188 63 233 4 11 16 37 25 58 9 21 16 42 16 46 0 19 143 314 180 371 9 14
21 34 27 45 7 11 37 62 67 112 31 51 56 97 56 102 0 5 6 16 13 23 6 7 23 35
36 62 29 59 143 249 175 291 26 33 41 73 37 94 -2 12 -49 57 -75 72 -20 12
-51 17 -64 12z"/>
<path d="M5753 5142 c-29 -4 -42 -22 -68 -95 -12 -34 -32 -89 -44 -122 -12
-33 -66 -150 -120 -260 -55 -110 -113 -229 -130 -265 -17 -36 -35 -72 -40 -80
-17 -29 -220 -445 -250 -515 -17 -38 -37 -81 -45 -95 -17 -28 -92 -180 -141
-285 -32 -67 -123 -275 -167 -380 -11 -27 -25 -58 -30 -69 -13 -25 -77 -211
-90 -264 -9 -33 -8 -47 2 -68 29 -54 106 -69 173 -35 21 11 134 118 253 240
324 332 502 481 766 644 54 33 182 167 172 177 -52 52 -235 -34 -558 -260
-107 -75 -265 -212 -421 -364 -77 -76 -116 -109 -121 -103 -3 3 -1 13 5 24 6
10 31 68 57 128 26 61 50 115 54 120 4 6 13 28 20 50 7 22 34 85 60 140 26 55
69 145 95 200 25 55 178 366 340 690 161 325 298 606 305 625 7 19 24 50 38
68 29 40 25 67 -18 116 -30 34 -56 44 -97 38z"/>
<path d="M7065 5012 c-22 -9 -44 -20 -50 -24 -5 -4 -37 -28 -70 -52 -65 -49
-141 -126 -367 -371 -220 -240 -242 -275 -393 -620 -26 -59 -73 -221 -85 -290
-6 -38 -15 -84 -19 -100 -13 -51 4 -225 25 -265 25 -45 105 -154 117 -159 5
-2 18 -12 28 -22 53 -53 174 -62 284 -22 113 41 172 111 434 513 163 251 289
497 306 599 4 22 11 43 16 46 15 10 48 132 60 223 18 133 13 232 -11 257 -19
18 -22 19 -48 5 -15 -9 -28 -25 -29 -35 -15 -178 -26 -228 -69 -313 -25 -48
-46 -96 -48 -107 -7 -40 -120 -280 -136 -290 -6 -3 -10 -12 -10 -20 0 -14
-104 -191 -150 -255 -14 -19 -41 -60 -60 -92 -130 -213 -270 -374 -347 -398
-54 -17 -84 -8 -129 38 -60 61 -76 110 -72 222 4 100 33 241 66 325 11 28 30
77 42 110 72 200 195 393 349 546 9 9 59 63 111 120 101 110 196 203 234 228
134 92 141 94 191 61 19 -13 38 -17 55 -13 30 7 60 31 60 48 0 19 -28 70 -47
87 -46 39 -165 49 -238 20z"/>
<path d="M4312 4894 c-26 -27 -63 -67 -83 -89 -20 -22 -56 -58 -80 -80 -140
-129 -370 -387 -445 -500 -29 -44 -76 -111 -103 -150 -28 -38 -63 -90 -77
-115 -15 -25 -50 -81 -79 -125 -79 -121 -138 -222 -173 -295 -53 -112 -147
-419 -156 -510 -2 -14 -8 -41 -14 -60 -13 -43 -26 -215 -22 -290 2 -30 3 -68
2 -85 -4 -84 52 -197 141 -283 69 -66 202 -85 303 -42 25 11 51 20 59 20 18 0
155 91 206 137 47 42 305 365 446 560 21 28 47 64 58 79 11 15 29 39 40 53 28
35 55 77 83 131 14 25 30 52 36 60 16 20 39 72 90 200 45 110 48 121 53 145 2
11 10 43 18 70 122 412 156 565 157 700 0 151 -22 229 -96 340 -69 102 -115
127 -156 83 -17 -19 -18 -24 -6 -37 8 -9 22 -36 31 -61 10 -25 26 -63 35 -85
58 -128 50 -315 -25 -570 -13 -44 -31 -109 -40 -145 -10 -36 -26 -93 -37 -128
-11 -34 -21 -69 -22 -77 -1 -8 -5 -18 -9 -21 -4 -4 -7 -14 -7 -23 0 -49 -144
-343 -221 -453 -65 -92 -211 -281 -279 -363 -28 -33 -70 -85 -93 -115 -23 -30
-44 -57 -47 -60 -3 -3 -22 -28 -42 -55 -35 -49 -124 -136 -187 -183 -35 -27
-130 -62 -163 -62 -59 2 -111 53 -138 135 -30 92 -3 429 49 600 12 39 26 84
32 100 6 17 17 48 23 70 12 37 17 52 51 130 38 89 110 222 161 299 21 32 45
70 53 85 25 45 152 234 190 280 19 25 46 60 58 78 13 19 27 39 33 46 5 7 42
52 82 101 40 49 97 112 127 140 30 28 95 94 145 146 50 52 119 122 154 155
l63 60 -15 36 c-19 45 -35 58 -80 66 -33 5 -40 2 -84 -43z"/>
</g>
</svg>
